<svg xmlns="http://www.w3.org/2000/svg" viewBox="0 0 512 512" style="enable-background:new 0 0 512 512" xml:space="preserve">
  <style>
    .st0{fill:#5E72E4}.st1{fill:#324CDD}.st2{fill:#F7F7F7}.st3{fill:#E6E6E6}.st4{fill:#FFB454}
  </style>
  <path class="st0" d="M512 256c0 141.4-114.6 256-256 256S0 397.4 0 256 114.6 0 256 0s256 114.6 256 256z"/>
  <path class="st1" d="M512 256c0-10.6-.7-21-1.9-31.2L399 113.7l-286 284.6 92.3 92.3c16.3 7.1 34.1 11.3 52.7 11.3 141.4 0 256-114.6 256-256z"/>
  <path class="st2" d="M113 113.7h286v284.6H113z"/>
  <path class="st3" d="M256 113.7h143v284.6H256z"/>
  <path class="st4" d="M256 227.6c-24.9 0-45.1-20.2-45.1-45.1s20.2-45.1 45.1-45.1 45.1 20.2 45.1 45.1-20.2 45.1-45.1 45.1z"/>
  <path class="st4" d="M256 227.6v-90.2c24.9 0 45.1 20.2 45.1 45.1s-20.2 45.1-45.1 45.1z"/>
  <path d="M301.1 182.5c0 24.9-20.2 45.1-45.1 45.1s-45.1-20.2-45.1-45.1 20.2-45.1 45.1-45.1 45.1 20.2 45.1 45.1zm-45.1-25.1c-13.8 0-25.1 11.2-25.1 25.1s11.2 25.1 25.1 25.1 25.1-11.2 25.1-25.1-11.3-25.1-25.1-25.1z" style="fill:#333"/>
  <path d="M256 207.6c-13.8 0-25.1-11.2-25.1-25.1s11.2-25.1 25.1-25.1v-20c-24.9 0-45.1 20.2-45.1 45.1s20.2 45.1 45.1 45.1 45.1-20.2 45.1-45.1h-20c0 13.9-11.3 25.1-25.1 25.1z" style="fill:#333"/>
  <path d="M369 113.7H143c-5.5 0-10 4.5-10 10v224.6c0 5.5 4.5 10 10 10h226c5.5 0 10-4.5 10-10V123.7c0-5.5-4.5-10-10-10zm-10 224.6H153V133.7h206v204.6z" style="fill:#333"/>
  <path class="st2" d="M163 257.7h186v10H163zm0 30h186v10H163zm0 30h186v10H163z"/>
  <path class="st3" d="M256 257.7h93v10h-93zm0 30h93v10h-93zm0 30h93v10h-93z"/>
</svg> 