<?xml version="1.0" encoding="utf-8"?>
<svg xmlns="http://www.w3.org/2000/svg" xmlns:xlink="http://www.w3.org/1999/xlink" version= "1.1" width="1798px" height="1400px" viewBox="-355 224 1798 1400">
<g id="layer1">
<g style="fill:rgb(0,174,199); fill-opacity:1.0; stroke-linejoin: miter">
<path d="M-355.001,222.63335C-355.3632,222.63335,-355.71057,222.77724,-355.96667,223.03334C-356.22278,223.28944,-356.36664,223.6368,-356.36664,223.999L-356.36563,1624.0C-356.36563,1624.7543,-355.7542,1625.3656,-355.0,1625.3656L1443.001,1625.3666C1443.3632,1625.3666,1443.7106,1625.2228,1443.9667,1624.9667C1444.2228,1624.7106,1444.3666,1624.3632,1444.3666,1624.001L1444.3656,224.0C1444.3656,223.24577,1443.7543,222.63435,1443.0,222.63435L-355.001,222.63335 Z"/>
</g>
<g style="fill:rgb(0,0,0); fill-opacity:1.0; stroke-linejoin: miter">
<path d="M935.17554,809.2649L935.1761,809.26556L935.17664,809.2663L935.17554,809.2649"/>
</g>
<g style="fill:rgb(0,0,0); fill-opacity:1.0; stroke-linejoin: miter">
<path d="M614.1181,452.74875C537.15265,447.24286,470.29056,505.17712,464.78476,582.14343C459.27902,659.1093,517.21356,725.9714,594.179,731.4774C671.1448,736.9833,738.0069,679.04865,743.5128,602.08264C749.0186,525.1166,691.08405,458.2548,614.1181,452.74875 Z"/>
</g>
<g style="fill:rgb(255,255,255); fill-opacity:1.0; stroke-linejoin: miter">
<path d="M594.86707,600.1558C596.926,602.53204,599.89075,604.12335,603.2723,604.3651C609.7658,604.8292,615.45856,600.1321,616.3141,593.7653L680.96454,537.7415L668.90094,523.8185L605.07874,579.1141L567.8752,536.184L553.9526,548.24756L591.8719,592.01697C591.83575,595.1051,592.9672,597.96326,594.86707,600.1558 Z M612.80365,471.12643C679.5146,475.89835,729.90735,534.05664,725.135,600.768C720.3627,667.479,662.2047,717.8718,595.4937,713.0994C528.78284,708.32733,478.3903,650.1693,483.16238,583.458C487.93478,516.7472,546.0927,466.35413,612.80365,471.12643 Z"/>
</g>
<g style="fill:rgb(109,109,109); fill-opacity:1.0; stroke-linejoin: miter">
<path d="M605.801,579.9477L605.07874,579.1141L567.8752,536.184L553.9526,548.24756L591.8719,592.01697C591.86566,591.75793,591.8781,591.5001,591.8969,591.23645L605.02527,579.8614C605.2886,579.88043,605.54553,579.9051,605.801,579.9477 Z"/>
</g>
<g style="fill:rgb(145,145,145); fill-opacity:1.0; stroke-linejoin: miter">
<path d="M680.96454,537.7415L668.90094,523.8185L605.07874,579.1141L605.801,579.9477L616.4004,592.9897C616.3816,593.2526,616.35693,593.5097,616.3141,593.7653L680.96454,537.7415 Z"/>
</g>
<g style="fill:rgb(72,72,72); fill-opacity:1.0; stroke-linejoin: miter">
<path d="M600.29877,589.3545L537.34125,643.9067C535.41864,645.5722,535.21063,648.4816,536.8765,650.4035C537.70905,651.36444,538.85333,651.89764,540.02875,651.9816C541.2043,652.06586,542.41266,651.7016,543.3736,650.86835L606.3313,596.3162L600.29877,589.3545 Z"/>
</g>
<g style="fill:rgb(0,0,0); fill-opacity:1.0; stroke-linejoin: miter">
<path d="M603.2723,604.3651C610.0279,604.8479,615.9172,599.745,616.4004,592.9897C616.88367,586.2342,611.78076,580.3444,605.02527,579.8614C598.2695,579.37805,592.3803,584.48096,591.8969,591.23645C591.41364,597.99207,596.5166,603.8819,603.2723,604.3651 Z"/>
</g>
<g style="fill:rgb(0,0,0); fill-opacity:1.0; stroke-linejoin: miter">
<path d="M609.84564,512.4763C607.3084,512.29456,605.3984,510.09033,605.5799,507.55304L606.8947,489.1754C607.0761,486.63782,609.28033,484.72815,611.8177,484.90955C614.3549,485.0913,616.26483,487.29553,616.0833,489.83282L614.76886,508.21045C614.5872,510.74768,612.3829,512.6581,609.84564,512.4763 Z"/>
</g>
<g style="fill:rgb(0,0,0); fill-opacity:1.0; stroke-linejoin: miter">
<path d="M706.42883,604.0479L688.05115,602.73364C685.5137,602.5515,683.60376,600.34766,683.7852,597.80994C683.96674,595.2726,686.17096,593.3629,688.7082,593.54407L707.08594,594.85944C709.6234,595.0401,711.53326,597.2447,711.3519,599.78204C711.1704,602.3193,708.9662,604.22943,706.42883,604.0479 Z"/>
</g>
<g style="fill:rgb(0,0,0); fill-opacity:1.0; stroke-linejoin: miter">
<path d="M596.4798,699.3166C593.94257,699.1348,592.03253,696.9306,592.2139,694.3936L593.5287,676.01575C593.7103,673.47815,595.91455,671.5687,598.4519,671.75024C600.98914,671.93164,602.89923,674.1359,602.7177,676.6735L601.4029,695.0507C601.2214,697.58795,599.01715,699.498,596.4798,699.3166 Z"/>
</g>
<g style="fill:rgb(0,0,0); fill-opacity:1.0; stroke-linejoin: miter">
<path d="M519.58905,590.682L501.21146,589.3682C498.67404,589.1857,496.76425,586.9819,496.94577,584.4443C497.1273,581.90704,499.33145,579.997,501.86887,580.1788L520.2464,581.494C522.78375,581.6749,524.69366,583.8788,524.51215,586.4164C524.3306,588.9536,522.1264,590.86365,519.58905,590.682 Z"/>
</g>
<g style="fill:rgb(0,0,0); fill-opacity:1.0; stroke-linejoin: miter">
<path d="M1073.1646,1292.2137L1073.1644,1292.2137L1154.391,1375.4545Q573.785,1374.5815,-6.821379,1373.7083Q27.350414,1339.0114,61.52221,1304.3142L1073.1646,1292.2137"/>
</g>
<g style="fill:rgb(0,0,0); fill-opacity:1.0; stroke-linejoin: miter">
<path d="M130.02397,1229.743L128.86882,1235.667Q122.21607,1268.6255,122.41605,1283.9999Q122.48471,1292.8854,124.607254,1299.0065Q125.63217,1302.0704,126.831726,1304.5305L131.59338,1313.7593Q132.06566,1315.0612,131.78145,1316.0404Q125.05433,1322.4355,102.626144,1318.2478Q92.00643,1315.9271,83.092964,1303.9872Q91.604485,1338.3573,88.00368,1344.7069Q84.68766,1352.4071,66.55612,1345.8544Q48.40976,1338.8644,38.431355,1328.5991Q29.47089,1318.6918,28.512989,1315.7659Q25.77464,1310.8815,23.84075,1305.2501Q20.046103,1293.9198,18.59175,1280.4171Q16.593039,1259.9933,16.568945,1237.7369Q11.369292,1232.56,9.315597,1217.2185Q7.6255255,1203.4467,8.949622,1196.0438Q10.568076,1185.2599,18.008688,1182.5897Q20.893179,1181.4119,24.239422,1180.9269Q44.622578,1179.4795,60.537716,1176.4635Q57.95354,1159.6675,75.82261,1153.9066Q90.30049,1148.8873,124.3787,1159.4652L128.22685,1160.5433L130.02397,1229.743"/>
</g>
<g style="fill:rgb(0,0,0); fill-opacity:1.0; stroke-linejoin: miter">
<path d="M1000.94775,1053.0343L1002.94354,1047.8768Q1015.1095,1013.579,1032.341,998.2709Q1036.2197,994.9001,1040.6417,992.14874Q1042.6356,990.3545,1054.7218,985.393Q1069.8403,980.0779,1084.7083,981.6608Q1096.2817,982.84344,1108.3816,990.25244Q1120.9669,998.19183,1137.0922,1014.59326Q1156.7362,1037.7109,1159.0962,1044.5376Q1164.6256,1055.1953,1160.8447,1063.8982Q1158.3687,1072.8749,1131.9734,1089.492L1064.9832,1110.9487L1000.94775,1053.0343"/>
</g>
<g style="fill:rgb(255,193,166); fill-opacity:1.0; stroke-linejoin: miter">
<path d="M985.1347,1055.982L1002.45013,1047.6544L1026.5399,1060.9471Q1049.0345,1050.1948,1058.1044,1047.5525Q1070.2117,1043.9664,1073.9028,1046.2971Q1082.781,1051.1287,1068.4143,1084.969L1079.9211,1089.0022Q1104.633,1063.1514,1113.4341,1059.5143Q1117.1296,1057.2375,1123.2625,1057.7136Q1126.0079,1057.8037,1130.0864,1061.8398Q1135.2943,1066.3254,1137.0818,1087.3003Q1116.6978,1110.3383,1110.4712,1115.1642Q1103.5371,1121.1844,1097.5999,1119.8391Q1088.2649,1145.3629,1084.2522,1145.8685Q1081.7303,1147.502,1076.7683,1140.565Q1069.7526,1144.8369,1067.2853,1145.4431Q1064.6323,1146.3223,1061.4076,1145.021Q1060.7498,1147.5254,1058.3701,1148.1012Q1055.2012,1148.6484,1046.4587,1146.7338Q1040.7637,1158.2262,1034.5529,1156.8497Q1028.5266,1156.598,1017.7732,1137.239Q1002.57544,1137.9343,995.31616,1136.6785Q987.99634,1135.7089,974.03613,1130.5624L985.1347,1055.982"/>
</g>
<g style="fill:rgb(255,193,166); fill-opacity:1.0; stroke-linejoin: miter">
<path d="M844.2495,1188.4791L844.2585,1110.5363L880.693,1050.7535L978.06,1083.0709L974.9139,1125.4762L965.4831,1135.684Q963.0161,1174.9254,960.07135,1182.9215Q956.3693,1198.6892,936.075,1226.4612Q944.1247,1239.2485,944.2685,1248.7592Q945.105,1257.7136,939.0158,1281.8562Q949.7768,1281.326,1015.76715,1287.9739L1037.8198,1270.1493L1075.6638,1282.5798Q1077.8333,1299.4119,1078.2878,1314.0475Q1078.7424,1328.6833,1074.0522,1336.7308Q1069.8832,1342.8549,1061.562,1344.2992Q1052.9419,1345.9586,1035.855,1344.0322L994.3718,1348.5544L955.2296,1357.3131L924.8272,1359.4514Q886.12976,1362.4814,870.0258,1353.8962Q864.24146,1350.1243,861.70886,1344.6805Q858.16406,1336.3845,857.36304,1326.6777Q851.0981,1324.2197,847.80365,1303.5854Q843.91797,1275.8068,841.0152,1194.4299L844.2495,1188.4791"/>
</g>
<g style="fill:rgb(60,70,79); fill-opacity:1.0; stroke-linejoin: miter">
<path d="M966.5283,1133.1149L967.23724,1128.2264Q973.8416,1095.8024,956.6178,1080.4323Q943.77386,1070.2133,925.5796,1066.2977Q908.3254,1062.3834,892.6543,1065.132Q880.33655,1066.4901,868.4271,1079.1947Q862.53864,1084.7878,858.1155,1102.1957Q850.5075,1126.8976,880.29193,1167.2599L871.6126,1186.2667Q790.0293,1194.57,764.34705,1193.4054Q753.3199,1193.4011,736.47144,1190.6204L706.6958,1183.3129L696.68835,1181.5233Q684.7744,1180.2943,678.896,1180.9257Q663.61066,1180.2639,606.687,1199.5918L553.74786,1045.9222Q563.9928,1039.4443,573.3455,1036.5984Q583.89185,1033.0446,604.0352,1031.4619Q617.8132,1030.4917,635.7752,1030.2083L808.4315,1028.3412Q836.8964,1028.1232,879.13855,1033.0087Q894.2369,1034.0555,991.17316,1052.8827Q1001.2154,1078.5618,993.2902,1096.7709Q989.02295,1109.816,977.4398,1133.1891L966.5283,1133.1149"/>
</g>
<g style="fill:rgb(255,178,145); fill-opacity:1.0; stroke-linejoin: miter">
<path d="M439.43826,1221.615L435.37143,1221.0123Q406.92084,1216.8191,396.58255,1217.7134Q394.6913,1217.6202,386.35303,1218.761L363.86554,1222.8497Q355.5084,1223.6079,353.60117,1223.3385Q351.9308,1223.4907,342.3945,1222.1619Q340.54288,1222.0459,314.7326,1216.6072L307.1057,1215.4248Q301.3567,1214.49,289.52994,1214.8827Q287.8052,1214.8817,279.73972,1215.7821Q256.6089,1219.3112,240.63405,1221.271Q224.57672,1223.0956,216.89545,1223.514Q189.13437,1225.232,144.1639,1224.3411L113.93664,1237.694Q83.39889,1228.5237,76.56505,1222.297Q68.48234,1217.3457,67.38855,1204.6613Q66.979774,1197.44,70.61802,1182.8353L104.58602,1180.4064Q104.933105,1161.0002,117.96897,1158.9362L144.51784,1154.8475Q158.53984,1152.1248,162.56421,1150.9117Q169.37758,1149.14,177.11552,1146.8127Q231.22382,1129.8192,236.35944,1128.7423Q253.76158,1123.8563,268.94635,1121.5044Q283.93167,1119.3278,296.78168,1119.4335Q313.0369,1119.3595,338.6426,1123.1316Q353.97864,1123.5667,360.70016,1122.8824Q378.19064,1122.2078,432.15494,1108.303L439.43826,1221.615"/>
</g>
<g style="fill:rgb(0,0,0); fill-opacity:1.0; stroke-linejoin: miter">
<path d="M627.64056,1193.8353L622.85376,1195.5312Q596.6631,1204.6484,577.96533,1213.5542L561.43066,1221.9615L519.95123,1244.8119Q507.90753,1251.1125,496.38535,1255.4874Q473.18753,1264.8153,432.58368,1265.2367L408.4156,1112.4373L513.2677,1083.8535Q527.45325,1061.789,539.06824,1053.405Q549.8762,1044.5486,580.5366,1032.1326L627.64056,1193.8353"/>
</g>
<g style="fill:rgb(0,0,0); fill-opacity:1.0; stroke-linejoin: miter">
<path d="M117.25425,1141.7899L117.25431,1141.7899L117.25438,1141.7902L117.25425,1141.7899"/>
</g>
</g>
</svg>