<?xml version='1.0' encoding='utf-8'?>
<svg xmlns="http://www.w3.org/2000/svg" version="1.1" id="Layer_1" x="0px" y="0px" viewBox="0 0 74 74" style="enable-background:new 0 0 74 74;"> <g> <path d="M31.03,62.87v-1.1c0-0.66-0.54-1.2-1.2-1.2c-0.66,0-1.2,0.54-1.2,1.2v1.1c0,1.66,0.67,3.16,1.76,4.26 c1.09,1.08,2.59,1.76,4.26,1.76c0.33,0,0.65-0.03,0.96-0.08l-1.3-2.34C32.47,66.3,31.03,64.76,31.03,62.87z"/> <path d="M57.77,23.3l2.5-4.87H57.2l2-6.11h-4.44l-1.03,6.99c-3.7-2.87-8.27-4.66-13.25-4.91v-0.91c0-0.64-0.53-1.17-1.17-1.17 c-0.65,0-1.17,0.53-1.17,1.17v0.91c-12.49,0.61-22.47,10.96-22.47,23.61c0,1.9,2.25,3.44,5.01,3.44c2.1,0,3.91-0.88,4.66-2.14 c0.75,1.25,2.55,2.14,4.64,2.14c2.1,0,3.91-0.88,4.66-2.14c0.62,1.04,1.98,1.82,3.62,2.06V51.9l2.4-1.3v-9.28 c1.49-0.29,2.7-1.03,3.28-2c0.75,1.25,2.55,2.14,4.64,2.14c2.1,0,3.91-0.88,4.66-2.14c0.75,1.25,2.55,2.14,4.64,2.14 c2.78,0,5.04-1.54,5.04-3.44C62.92,32.45,60.99,27.34,57.77,23.3z M20.68,40.7c-2.31,0-4.26-1.23-4.26-2.69 c0-11.08,7.92-20.35,18.39-22.44c-5.71,3.12-9.84,12-9.84,22.44C24.97,39.5,23.05,40.7,20.68,40.7z M29.98,40.7 c-2.31,0-4.26-1.23-4.26-2.69c0-11.8,5.32-21.54,12.13-22.76c-2.33,2.99-3.58,13.13-3.58,22.76C34.27,39.5,32.35,40.7,29.98,40.7z M39.28,40.7c-2.31,0-4.26-1.23-4.26-2.69c0-13.49,2.25-22.89,4.28-22.89s4.28,9.4,4.28,22.89C43.57,39.5,41.65,40.7,39.28,40.7z M48.58,40.7c-2.31,0-4.26-1.23-4.26-2.69c0-9.63-1.24-19.77-3.58-22.76c6.81,1.22,12.13,10.96,12.13,22.76 C52.87,39.5,50.95,40.7,48.58,40.7z M57.88,40.7c-2.31,0-4.26-1.23-4.26-2.69c0-10.45-4.13-19.33-9.84-22.44 c3.66,0.73,7.01,2.34,9.81,4.6l-0.35,2.36h2.04l-0.98,7.52l3.08-6.01c2.99,3.87,4.78,8.72,4.78,13.98 C62.17,39.5,60.25,40.7,57.88,40.7z"/> <path d="M28.31,13.82c0.99,0,1.78-0.8,1.78-1.78c0-0.99-1.78-4.18-1.78-4.18s-1.78,3.19-1.78,4.18 C26.53,13.02,27.33,13.82,28.31,13.82z"/> <path d="M19.04,21.44c1.11,0,2-0.89,2-1.99c0-1.11-2-4.69-2-4.69s-2,3.58-2,4.69C17.04,20.55,17.94,21.44,19.04,21.44z"/> <path d="M13.47,22.16c0,0-2.22,3.97-2.22,5.19s1,2.21,2.22,2.21c1.22,0,2.21-0.99,2.21-2.21S13.47,22.16,13.47,22.16z"/> <path d="M20.44,10.84c0.98,0,1.78-0.8,1.78-1.78c0-0.99-1.78-4.18-1.78-4.18s-1.79,3.19-1.79,4.18 C18.65,10.04,19.45,10.84,20.44,10.84z"/> <path d="M12.71,15.21c0.9,0,1.63-0.73,1.63-1.63c0-0.9-1.63-3.82-1.63-3.82s-1.63,2.92-1.63,3.82 C11.08,14.48,11.81,15.21,12.71,15.21z"/> <path d="M57.74,52.16c-0.1-0.41-0.35-0.76-0.71-0.98c-0.36-0.22-0.78-0.29-1.19-0.19l-0.93,0.22c0-0.01,0-0.01-0.01-0.02 l-1.98-3.63c-0.2-0.37-0.54-0.64-0.94-0.76c-0.41-0.12-0.83-0.07-1.2,0.13l-18.15,9.89c-0.76,0.42-1.05,1.38-0.63,2.14l5.23,9.42 c0,0,0,0,0,0c0.29,0.45,0.79,0.73,1.33,0.73c0.12,0,0.25-0.01,0.37-0.04l20.09-4.85c0.41-0.1,0.76-0.35,0.98-0.71 c0.22-0.36,0.29-0.78,0.19-1.19L57.74,52.16z M51.14,47.59c0.19-0.1,0.42-0.13,0.63-0.07c0.21,0.06,0.39,0.2,0.49,0.4l1.89,3.48 l-1.35,0.33l-1.48-2.71l-10.11,5.51l-5.02,1.21L51.14,47.59z M32.99,57.48l1.82-0.99c-0.02,0.02-0.03,0.04-0.05,0.07 c-0.22,0.36-0.29,0.78-0.19,1.19l1.84,7.63l-3.76-6.77C32.44,58.21,32.59,57.7,32.99,57.48z M59.37,63.13 c-0.12,0.19-0.3,0.32-0.51,0.37l-20.09,4.85c-0.45,0.1-0.89-0.17-1-0.61l-2.45-10.17c-0.05-0.21-0.02-0.44,0.1-0.63 c0.12-0.19,0.3-0.32,0.51-0.37l20.09-4.85c0.07-0.02,0.13-0.02,0.2-0.02c0.15,0,0.3,0.04,0.43,0.12c0.19,0.12,0.32,0.3,0.37,0.51 l2.45,10.17C59.52,62.72,59.48,62.94,59.37,63.13z"/> <path d="M48.83,60.08c-0.1-0.12-0.23-0.21-0.36-0.27c-0.14-0.06-0.29-0.09-0.44-0.1c-0.16-0.01-0.32-0.02-0.48-0.01l-0.31-1.28 c0.21-0.04,0.4-0.05,0.58-0.05c0.18,0,0.35,0.01,0.53,0.03l-0.15-0.63c-0.16-0.02-0.33-0.03-0.51-0.02 c-0.18,0.01-0.38,0.03-0.59,0.07l-0.11-0.46l-0.5,0.12l0.11,0.47c-0.17,0.06-0.32,0.15-0.45,0.25c-0.13,0.1-0.23,0.22-0.31,0.35 c-0.08,0.13-0.13,0.28-0.15,0.43s-0.01,0.33,0.03,0.51c0.05,0.21,0.13,0.38,0.23,0.5c0.1,0.12,0.22,0.21,0.35,0.27 c0.13,0.06,0.28,0.1,0.43,0.11c0.15,0.01,0.31,0.01,0.46,0.01l0.31,1.29l-0.03,0.01c-0.16,0.04-0.32,0.06-0.48,0.07 c-0.16,0.01-0.3,0.01-0.42,0c-0.12-0.01-0.22-0.02-0.31-0.04l0.15,0.62c0.06,0.02,0.13,0.03,0.22,0.04c0.09,0.01,0.19,0.01,0.3,0 s0.23-0.01,0.35-0.03s0.24-0.04,0.36-0.07l0.11,0.45l0.5-0.12l-0.12-0.49c0.18-0.08,0.34-0.17,0.47-0.27 c0.13-0.1,0.24-0.22,0.33-0.35s0.14-0.27,0.16-0.43s0.02-0.32-0.03-0.49C49.01,60.37,48.93,60.2,48.83,60.08z M46.53,59.64 c-0.12-0.06-0.2-0.17-0.23-0.33c-0.08-0.34,0.07-0.59,0.45-0.75l0.28,1.17C46.81,59.74,46.64,59.71,46.53,59.64z M48.39,61.2 c-0.05,0.06-0.1,0.12-0.17,0.17s-0.15,0.09-0.23,0.13l-0.28-1.17c0.1,0,0.2,0,0.28,0.01c0.08,0.01,0.16,0.03,0.23,0.06 c0.07,0.03,0.12,0.07,0.17,0.12s0.08,0.12,0.1,0.21c0.02,0.1,0.03,0.18,0.01,0.26C48.46,61.07,48.43,61.14,48.39,61.2z"/> <path d="M36.73,57.76l2.22,9.16l19.09-4.61l-2.22-9.16L36.73,57.76z M38.49,61.23l4.36-1.06l0.14,0.61l-4.36,1.06L38.49,61.23z M38.92,63.04l-0.14-0.61l4.36-1.05l0.14,0.6L38.92,63.04z M48.36,64.09c-1.88,0.45-3.82-1-4.37-3.24 c-0.54-2.24,0.55-4.42,2.41-4.86c1.88-0.45,3.83,1,4.37,3.23C51.31,61.45,50.24,63.64,48.36,64.09z M56.29,58.84l-4.36,1.05 l-0.14-0.61l4.36-1.05L56.29,58.84z M56,57.65l-4.36,1.05l-0.14-0.61l4.36-1.05L56,57.65z"/> </g> </svg>