<?xml version='1.0' encoding='utf-8'?>
<svg xmlns="http://www.w3.org/2000/svg" viewBox="0 0 2264 3018"> <path transform="matrix(2.2109 0 0 2.211 -.00012207 0)" d="m97.483 1230.2c7.0254 2.68 26.155-1.85 34.805-1.8 8.205 0.05 16.164 3.41 24.359 1.4 0.154 0.23 0.297 0.47 0.462 0.69 4.264 5.74 20.361 3.18 18.893 15.89-0.326 2.82-2.527 5.26-4.768 6.83-14.597 10.22-53.201 9.69-70.619 6.19-6.0188-1.21-15.902-4.14-19.304-9.77q-0.2397-0.39-0.4348-0.81t-0.3432-0.86q-0.148-0.44-0.2474-0.89-0.0993-0.45-0.1487-0.91-0.0493-0.46-0.0482-0.92 0.0012-0.46 0.0529-0.92t0.1534-0.91q0.1016-0.45 0.2519-0.89c1.1026-3.3 3.945-4.87 6.9251-6.2 3.194-1.43 8.4432-2.83 10.01-6.12z" fill="#380303"/> <path transform="matrix(2.2109 0 0 2.211 -.00012207 0)" d="m887.22 1228.5c5.324 6.62 29.51 3.8 27.98 17.55-0.317 2.84-2.063 5.31-4.357 6.94-16.123 11.41-51.799 10.58-70.759 6.79-6.216-1.24-16.785-3.71-20.396-9.53-1.288-2.08-1.417-4.44-0.744-6.76 0.876-3.02 2.887-5.3 5.74-6.61 4.909-2.26 12.866-2.16 16.068-6.75 0.593 0.22 0.608 0.25 1.336 0.38 8.156 1.56 22.691-0.89 31.834-0.76 2.595 0.04 9.46 0.93 11.703-0.09 0.6-0.27 1.063-0.78 1.595-1.16z" fill="#380303"/> <path transform="matrix(2.2109 0 0 2.211 -.00012207 0)" d="m301.26 1056.2c-0.432-0.44-0.491-0.47-0.881-1.07-5.871-9.14-24.114-64.585-26.88-76.849-1.047-4.644-2.349-11.367-1.132-16.078 0.745-2.882 3.766-5.443 6.227-6.956 10.776-6.624 30.923-5.956 42.962-3.25-2.101 9.884-12.859 25.675-7.39 34.709 2.963 4.896 9.431 6.682 14.7 7.776q3.039 0.659 6.143 0.847t6.201-0.099c-7.179 20.37-5.077 25-4.619 45.58 0.108 4.87-0.726 9.78-0.629 14.56-1.831 5.82-3.305 10.77-9.172 13.75-3.698 1.88-7.957 1.85-11.832 0.55-5.707-1.92-10.612-7.04-13.237-12.37-0.195-0.4-0.291-0.67-0.461-1.1z" fill="#0F0845"/> <path transform="matrix(2.2109 0 0 2.211 -.00012207 0)" d="m77.556 415.66c1.1602 8.713 0.854 17.884 1.1233 26.696l1.4638 38.521c-6.762 7.565-14.895 15.251-14.332 26.235 0.576 11.231 8.0517 23.154 12.135 33.474-2.8454 0.092-5.9734-0.041-8.7611 0.472-2.2901 0.53-4.2074 1.798-5.5115 3.801-0.7945 1.22-0.7744 3.06-0.3131 4.403 0.7749 2.256 3.421 4.478 5.559 5.4 2.4645 1.063 5.6795 0.68 8.3159 0.581l0.1965 136.42-25.843-0.072c-15.057-68.513-10.493-158.53 8.2559-226.16 4.7083-16.984 11.279-33.382 17.711-49.769z" fill="#E1E4FD"/> <path transform="matrix(2.2109 0 0 2.211 -.00012207 0)" d="m890.29 276.66c9.335 13.76 17.106 28.42 24.639 43.219 36.08 70.887 58.179 150.5 59.967 230.19 0.244 1.886 0.428 3.72 0.454 5.623 0.716 33.949-1.366 67.22-5.463 100.89-1.417 11.653-2.604 23.896-5.54 35.251l-75.964 0.037-1.032-131.73 4e-3 -4.893c-5.214 0.56-10.145 0.38-15.358 0.083l-1.602-1.554 6.461-9.542c3.42-4.371 6.5-9.055 9.686-13.601 12.5-22.067 28.349-42.033 41.213-63.857 10.355-17.566 14.14-35.013 8.991-55.007l-1.431-4.787c-2.061-4.065-4.621-6.988-8.763-9.001-10.369-5.037-26.137-2.674-36.565 1.041-1.214-3.083-0.98-8.004-1.046-11.314-0.212-10.543 0.377-21.176 0.416-31.732 0.045-12.43-1.283-72.956 0.933-79.316z" fill="#E1E4FD"/> <path transform="matrix(2.2109 0 0 2.211 -.00012207 0)" d="m876.86 544.23c3.683 0.075 7.437 0.01 11.097 0.401l0.876 4.524c-0.479 2.029-0.913 4.081-1.474 6.088-5.214 0.56-10.145 0.38-15.358 0.083l-1.602-1.554 6.461-9.542z" fill="#4D4C9C"/> <path transform="matrix(2.2109 0 0 2.211 -.00012207 0)" d="m870.4 553.77 1.602 1.554c5.213 0.297 10.144 0.477 15.358-0.083l-4e-3 4.893 1.032 131.73 75.964-0.037c-0.751 4.161-1.281 8.52-2.313 12.611-1.146 5.044-2.059 10.305-3.611 15.233-9.52 36.594-23.819 80.784-45.254 112.06-12.932 19.647-25.764 38.617-41.782 55.941q6.655 55.173 14.778 110.15c1.187 8.439 3.162 30.869 5.762 37.119-0.387 0.17-0.815 0.4-1.241 0.49-0.708 0.15-20.956-1.09-22.267-1.42-0.874-0.22-1.671-0.68-2.4-1.2-3.15-10.59-3.913-26.56-5.393-37.848l-10.59-79.225q-13.003-97.509-24.936-195.15c-5.378-43.372-11.271-86.788-15.279-130.31 8.98-1.422 16.894-3.506 25.423-6.579 14.437-7.526 25.061-17.421 35.151-29.926z" fill="#A3A7F2"/> <path transform="matrix(2.2109 0 0 2.211 -.00012207 0)" d="m848.67 704.32 113.37 0.117c-1.146 5.044-2.059 10.305-3.611 15.233-10.829-1.263-22.257-0.782-33.169-0.879q-37.564-0.101-75.125 0.352l-1.463-14.823z" fill="#E1E4FD"/> <path transform="matrix(2.2109 0 0 2.211 -.00012207 0)" d="m857.83 779.07c6.454 0.023 12.235 0.232 17.075 5.171 9.917 10.119 6.739 33.706 6.416 46.945 10.582-0.265 21.348-0.992 31.853 0.547-12.932 19.647-25.764 38.617-41.782 55.941-2.672-11.187-3.433-23.375-4.907-34.813q-4.866-36.832-8.655-73.791z" fill="#5E69E4"/> <path transform="matrix(2.2109 0 0 2.211 -.00012207 0)" d="m870.4 553.77 1.602 1.554-3e-3 136.48-25.126 0.022c-4.509-35.865-8.755-72.094-11.624-108.13 14.437-7.526 25.061-17.421 35.151-29.926z" fill="#E1E4FD"/> <path transform="matrix(2.2109 0 0 2.211 -.00012207 0)" d="m99.32 765.04 1.9127 0.348c9.305 2.424 20.683 0.517 30.282 0.423q38.785 0.289 77.569 0.064c14.067-0.119 28.869-1.617 42.822 0.226 3.735 0.493 7.007 1.223 9.746 4.039 3.901 4.009 4.823 9.724 8.235 13.885-0.061 2.481-0.097 4.958-0.316 7.431 3.621-4e-3 7.839 0.393 11.331-0.512l0.684-0.904c3.395 9.906 5.146 26.128 0.401 35.744-0.923 1.87-2.034 3.67-3.148 5.432l137.63 0.039c22.661-2e-3 45.494-0.585 68.138 0.015l0.069 14.247c-49.925 5.674-94.725 38.16-128.64 73.599-33.711 2.266-67.23 3.333-100.5-3.8q-2.992-0.623-5.968-1.319t-5.934-1.465q-2.958-0.768-5.896-1.61-2.938-0.841-5.855-1.753-2.917-0.913-5.81-1.897-2.894-0.984-5.762-2.039-2.869-1.054-5.71-2.179-2.842-1.125-5.655-2.318-2.814-1.194-5.597-2.457-2.783-1.262-5.535-2.593-2.751-1.33-5.469-2.727-2.718-1.398-5.401-2.861-2.683-1.464-5.329-2.993t-5.254-3.122-5.176-3.25q-2.568-1.656-5.095-3.376-2.526-1.719-5.01-3.499-2.484-1.781-4.923-3.622t-4.833-3.741q-2.393-1.9-4.739-3.858t-4.644-3.973q-2.297-2.016-4.545-4.086-2.247-2.071-4.443-4.197-2.196-2.125-4.339-4.303-2.143-2.179-4.232-4.409t-4.123-4.511q-2.033-2.281-4.011-4.611-1.977-2.33-3.896-4.708-1.92-2.378-3.78-4.802-1.861-2.424-3.661-4.893-1.801-2.469-3.54-4.981-1.7398-2.513-3.4172-5.067c3.3742-9.663 1.4728-31.945 1.3755-43.056z" fill="#5E69E4"/> <path transform="matrix(2.2109 0 0 2.211 -.00012207 0)" d="m120.03 789.93 131.57 6e-3q0.209 20.888-0.207 41.773l-131.39 0.074 0.028-41.853z" fill="#E1E4FD"/> <path transform="matrix(2.2109 0 0 2.211 -.00012207 0)" d="m483.77 775.38c11.644 10.918 20.425 27.228 30.339 39.938 11.675 14.965 26.652 29.072 36.058 45.551 1.721 3.016 1.707 6.4 1.834 9.782 0.349 9.248-0.484 18.563-0.638 27.815-0.142 8.564 0.307 17.22 0.784 25.77-35.677 15.478-71.94 26.612-109.03 38.074q-27.334 8.519-54.572 17.343c-7.725 2.421-43.375 11.36-47.337 15.531q-3.097 0.287-6.201 0.099t-6.143-0.847c-5.269-1.094-11.737-2.88-14.7-7.776-5.469-9.034 5.289-24.825 7.39-34.709 7.234-3.198 27.943-26.049 34.477-32.826 33.92-35.439 78.72-67.925 128.64-73.599l-0.069-14.247c-0.948-18.592-0.749-37.285-0.836-55.899z" fill="#DF993D"/> <path transform="matrix(2.2109 0 0 2.211 -.00012207 0)" d="m121.77 532.46c2.719 2.943 5.37 6.051 8.303 8.778 25.736 0.028 51.688 0.733 77.404-0.053q21.318-0.364 42.637-0.043c10.536 3e-3 21.102 0.169 31.634-1e-3l7.095 0.342c2.719 0.628 4.956 1.499 6.513 3.962 0.938 1.485 1.185 3.006 0.639 4.687-0.629 1.935-2.109 3.347-3.958 4.131-1.229 0.521-2.589 0.781-3.89 1.057-1.894-0.079-4.173-0.479-5.875 0.467-1.865 8.072-0.85 26.775-0.893 35.808-0.157 33.1 0.689 66.309-0.032 99.391q-0.252 36.248 0.415 72.49c0.109 8.718-1.1 17.938-0.174 26.566l-0.684 0.904c-3.492 0.905-7.71 0.508-11.331 0.512 0.219-2.473 0.255-4.95 0.316-7.431-3.412-4.161-4.334-9.876-8.235-13.885-2.739-2.816-6.011-3.546-9.746-4.039-13.953-1.843-28.755-0.345-42.822-0.226q-38.784 0.225-77.569-0.064c-9.599 0.094-20.977 2.001-30.282-0.423l-1.9127-0.348c0.0973 11.111 1.9987 33.393-1.3755 43.056-3.598-5.507-6.8455-11.121-10.002-16.892-4.913-7.634-8.7412-16.197-12.762-24.334-7.5497-15.314-12.291-31.659-17.198-47.953-1.5783-4.688-2.5782-9.617-3.7401-14.423l-2.6547-12.907 25.843 0.072-0.1965-136.42c-2.6364 0.099-5.8514 0.482-8.3159-0.581-2.138-0.922-4.7841-3.144-5.559-5.4-0.4613-1.343-0.4814-3.183 0.3131-4.403 1.3041-2.003 3.2214-3.271 5.5115-3.801 10.627 0.676 22.1 0.367 32.737-0.289 3.296-0.076 6.658-0.284 9.944-0.035 0.784-0.036 1.553-0.067 2.326-0.216 3.607-0.695 5.688-5.205 7.576-8.056z" fill="#8F92E6"/> <path transform="matrix(2.2109 0 0 2.211 -.00012207 0)" d="m139.19 703.94c5.727-0.137 15.16-1.49 20.514 0.457-2.434 5.06-4.731 10.621-8.734 14.657-5.137 0.185-10.636 0.82-15.487-1.203 1.637-4.464 2.565-9.296 3.707-13.911z" fill="#E1E4FD"/> <path transform="matrix(2.2109 0 0 2.211 -.00012207 0)" d="m142.23 691.27 24.392-0.06c-2.392 4.361-4.77 8.707-6.921 13.194-5.354-1.947-14.787-0.594-20.514-0.457 1.213-4.2 2.177-8.394 3.043-12.677z" fill="#A3A7F2"/> <path transform="matrix(2.2109 0 0 2.211 -.00012207 0)" d="m98.592 691.01c4.984 0.089 9.974 0.243 14.957 0.076-0.278 4.807 0.304 12.248-1.162 16.699-1.33 11.067-3.738 51.041-10.681 57.245-0.148 0.132-0.315 0.241-0.473 0.361l-1.9127-0.348c-0.5495-19.321 0.5569-38.723-0.253-58-1.0612-4.969-0.6333-10.946-0.4753-16.033z" fill="#E1E4FD"/> <path transform="matrix(2.2109 0 0 2.211 -.00012207 0)" d="m98.592 691.01c4.984 0.089 9.974 0.243 14.957 0.076-0.278 4.807 0.304 12.248-1.162 16.699-0.066-0.314-0.104-0.635-0.197-0.942-0.426-1.407-0.767-1.825-2.093-2.457-2.599-1.241-6.244-1.353-8.896-0.21-1.658 0.715-1.5769 1.32-2.1337 2.867-1.0612-4.969-0.6333-10.946-0.4753-16.033z" fill="#A3A7F2"/> <path transform="matrix(2.2109 0 0 2.211 -.00012207 0)" d="m98.592 691.01c0.869-32.855-0.388-65.952-0.5376-98.834-0.0479-10.521-0.5536-21.254-0.0948-31.748 0.0926-2.119-0.0955-3.365 1.5147-4.848 3.1297-0.922 6.2887-0.613 9.5057-0.474-1.187 26.554 0.252 52.468 2.241 78.931 1.386 18.436 4.468 38.666 2.328 57.049-4.983 0.167-9.973 0.013-14.957-0.076z" fill="#E1E4FD"/> <path transform="matrix(2.2109 0 0 2.211 -.00012207 0)" d="m157.12 603.6c8.6 16.053 16.752 32.37 25.54 48.316-4.802 13.421-9.969 26.382-16.039 39.295l-24.392 0.06c8.838-27.83 12.855-58.572 14.891-87.671z" fill="#E1E4FD"/> <path transform="matrix(2.2109 0 0 2.211 -.00012207 0)" d="m189.31 703.81c2.723-4.815 6.581-9.293 10.17-13.486 5.049 2.378 58.611 0.821 69.934 0.829l-0.022 12.693-0.048 15.306q-0.325 32.446 0.541 64.882c-3.412-4.161-4.334-9.876-8.235-13.885-2.739-2.816-6.011-3.546-9.746-4.039-13.953-1.843-28.755-0.345-42.822-0.226q-38.784 0.225-77.569-0.064c-3.117-2.05-5.59-4.352-8.191-7.018 3.7-13.751 8.485-27.178 12.155-40.944 4.851 2.023 10.35 1.388 15.487 1.203-1.644 1.783-2.933 4.103-4.283 6.123 7.528 9.282 26.911 35.788 37.383 38.97 1.928-0.26 1.837-0.224 3.085-1.719 3.007-11.837-7.944-29.814-13.2-40.109l3.435-4.022c4.12-4.708 7.998-9.626 11.926-14.494z" fill="#A3A7F2"/> <path transform="matrix(2.2109 0 0 2.211 -.00012207 0)" d="m189.31 703.81c2.723-4.815 6.581-9.293 10.17-13.486 5.049 2.378 58.611 0.821 69.934 0.829l-0.022 12.693-0.048 15.306q-29.687 0.418-59.378 0.438c-10.621-0.047-22.122 0.454-32.582-1.286 4.12-4.708 7.998-9.626 11.926-14.494z" fill="#E1E4FD"/> <path transform="matrix(2.2109 0 0 2.211 -.00012207 0)" d="m189.31 703.81c2.723-4.815 6.581-9.293 10.17-13.486 5.049 2.378 58.611 0.821 69.934 0.829l-0.022 12.693q-40.041 0.228-80.082-0.036z" fill="#A3A7F2"/> <path transform="matrix(2.2109 0 0 2.211 -.00012207 0)" d="m121.77 532.46c2.719 2.943 5.37 6.051 8.303 8.778 25.736 0.028 51.688 0.733 77.404-0.053q21.318-0.364 42.637-0.043c10.536 3e-3 21.102 0.169 31.634-1e-3l7.095 0.342c2.719 0.628 4.956 1.499 6.513 3.962 0.938 1.485 1.185 3.006 0.639 4.687-0.629 1.935-2.109 3.347-3.958 4.131-1.229 0.521-2.589 0.781-3.89 1.057-1.894-0.079-4.173-0.479-5.875 0.467-1.865 8.072-0.85 26.775-0.893 35.808-0.157 33.1 0.689 66.309-0.032 99.391q-0.252 36.248 0.415 72.49c0.109 8.718-1.1 17.938-0.174 26.566l-0.684 0.904c-3.492 0.905-7.71 0.508-11.331 0.512 0.219-2.473 0.255-4.95 0.316-7.431q-0.866-32.436-0.541-64.882l0.048-15.306 0.022-12.693c-11.323-8e-3 -64.885 1.549-69.934-0.829 8.49-10.024 19.462-22.056 23.5-34.714 6.64-20.816-21.841-75.328-15.459-100.44-32.872-0.66-65.676 0.082-98.543-0.059-3.217-0.139-6.376-0.448-9.5057 0.474-1.6102 1.483-1.4221 2.729-1.5147 4.848-0.4588 10.494 0.0469 21.227 0.0948 31.748 0.1496 32.882 1.4066 65.979 0.5376 98.834-0.158 5.087-0.5859 11.064 0.4753 16.033 0.8099 19.277-0.2965 38.679 0.253 58 0.0973 11.111 1.9987 33.393-1.3755 43.056-3.598-5.507-6.8455-11.121-10.002-16.892-4.913-7.634-8.7412-16.197-12.762-24.334-7.5497-15.314-12.291-31.659-17.198-47.953-1.5783-4.688-2.5782-9.617-3.7401-14.423l-2.6547-12.907 25.843 0.072-0.1965-136.42c-2.6364 0.099-5.8514 0.482-8.3159-0.581-2.138-0.922-4.7841-3.144-5.559-5.4-0.4613-1.343-0.4814-3.183 0.3131-4.403 1.3041-2.003 3.2214-3.271 5.5115-3.801 10.627 0.676 22.1 0.367 32.737-0.289 3.296-0.076 6.658-0.284 9.944-0.035 0.784-0.036 1.553-0.067 2.326-0.216 3.607-0.695 5.688-5.205 7.576-8.056z" fill="#4D4C9C"/> <path transform="matrix(2.2109 0 0 2.211 -.00012207 0)" d="m121.77 532.46c2.719 2.943 5.37 6.051 8.303 8.778-6.088-0.02-12.128-0.135-18.205-0.506 0.784-0.036 1.553-0.067 2.326-0.216 3.607-0.695 5.688-5.205 7.576-8.056z" fill="#5E69E4"/> <path transform="matrix(2.2109 0 0 2.211 -.00012207 0)" d="m87.477 688.16c1.2407 14.364 0.2735 29.236 0.2902 43.663 0.023 19.773 0.6389 39.626 0.176 59.389-4.913-7.634-8.7412-16.197-12.762-24.334 3.994-1.168 8.0765-1.156 12.201-1.285l-0.0485-47.053 0.0307-14.048q-0.0732-8.167 0.1119-16.332z" fill="#5E69E4"/> <path transform="matrix(2.2109 0 0 2.211 -.00012207 0)" d="m57.983 718.92c9.7797-0.457 19.564-0.393 29.351-0.385l0.0485 47.053c-4.1247 0.129-8.2072 0.117-12.201 1.285-7.5497-15.314-12.291-31.659-17.198-47.953z" fill="#A3A7F2"/> <path transform="matrix(2.2109 0 0 2.211 -.00012207 0)" d="m77.235 555.24 10.05 0.092 0.1918 132.82q-0.1851 8.165-0.1119 16.332l-0.0307 14.048c-9.7876-8e-3 -19.571-0.072-29.351 0.385-1.5783-4.688-2.5782-9.617-3.7401-14.423l-2.6547-12.907 25.843 0.072-0.1965-136.42z" fill="#A3A7F2"/> <path transform="matrix(2.2109 0 0 2.211 -.00012207 0)" d="m54.243 704.5 33.122-0.01-0.0307 14.048c-9.7876-8e-3 -19.571-0.072-29.351 0.385-1.5783-4.688-2.5782-9.617-3.7401-14.423z" fill="#E1E4FD"/> <path transform="matrix(2.2109 0 0 2.211 -.00012207 0)" d="m207.52 555.17 62.208 9e-3c1.409 45.241-0.736 90.707-0.315 135.97-11.323-8e-3 -64.885 1.549-69.934-0.829 8.49-10.024 19.462-22.056 23.5-34.714 6.64-20.816-21.841-75.328-15.459-100.44z" fill="#E1E4FD"/> <path transform="matrix(2.2109 0 0 2.211 -.00012207 0)" d="m94.263 378.34c2.8548-12.042 20.198-36.913 27.505-47.486 6.516-9.428 12.333-19.331 19.187-28.528 40.014-53.691 90.922-103.15 147.71-138.84l0.031 264.9c0.059 36.221 1.704 72.637 0.957 108.84-0.031 1.519-0.171 2.879-0.812 4.265l-7.095-0.342c-10.532 0.17-21.098 4e-3 -31.634 1e-3q-21.319-0.321-42.637 0.043c-25.716 0.786-51.668 0.081-77.404 0.053-2.933-2.727-5.584-5.835-8.303-8.778-1.888 2.851-3.969 7.361-7.576 8.056-0.773 0.149-1.542 0.18-2.326 0.216-3.286-0.249-6.648-0.041-9.944 0.035-10.637 0.656-22.11 0.965-32.737 0.289 2.7877-0.513 5.9157-0.38 8.7611-0.472-4.0832-10.32-11.559-22.243-12.135-33.474-0.5633-10.984 7.5698-18.67 14.332-26.235l-1.4638-38.521c-0.2693-8.812 0.0369-17.983-1.1233-26.696 4.4508-12.775 10.336-25.389 16.708-37.324z" fill="#E1E4FD"/> <path transform="matrix(2.2109 0 0 2.211 -.00012207 0)" d="m94.263 378.34c5.2394 10.093-2.0929 70.488 1.866 87.154q-8.2489 7.428-15.987 15.387l-1.4638-38.521c-0.2693-8.812 0.0369-17.983-1.1233-26.696 4.4508-12.775 10.336-25.389 16.708-37.324z" fill="#A3A7F2"/> <path transform="matrix(2.2109 0 0 2.211 -.00012207 0)" d="m159.65 408.16c-7.026-4.142-11.297-8.619-13.407-16.637-1.788-6.792-1.572-13.969 2.026-20.145 4.626-7.941 13.49-12.414 22.123-14.572 10.421-2.604 25.203-3.979 34.834 1.92 3.804 2.33 6.641 5.86 7.649 10.243 0.672 2.923 0.734 6.555-0.935 9.174-2.163 3.394-6.185 4.329-9.875 4.965 1.698 8.515 5.517 21.018 0.542 28.995-2.361 3.786-11.373 8.097-12.102 10.372-0.134 0.419 0.147 1.793 0.188 2.3 2.336 2.822 21.641 8.831 26.803 11.581 21.276 11.335 54.476 41.952 63.573 64.645 3.003 7.493 3.836 14.711 3.059 22.725-0.565 5.823-1.659 11.609-2.379 17.419-10.532 0.17-21.098 4e-3 -31.634 1e-3q-21.319-0.321-42.637 0.043c-25.716 0.786-51.668 0.081-77.404 0.053-2.933-2.727-5.584-5.835-8.303-8.778-1.888 2.851-3.969 7.361-7.576 8.056-0.773 0.149-1.542 0.18-2.326 0.216-3.286-0.249-6.648-0.041-9.944 0.035-10.637 0.656-22.11 0.965-32.737 0.289 2.7877-0.513 5.9157-0.38 8.7611-0.472-4.0832-10.32-11.559-22.243-12.135-33.474-0.5633-10.984 7.5698-18.67 14.332-26.235q7.7378-7.959 15.987-15.387c18.484-17.803 37.469-30.33 60.872-40.96q1.608-8.14 2.646-16.372z" fill="#8F92E6"/> <path transform="matrix(2.2109 0 0 2.211 -.00012207 0)" d="m131.4 478.02c0.051 17.763-3.544 37.759-9.63 54.446-1.888 2.851-3.969 7.361-7.576 8.056-0.773 0.149-1.542 0.18-2.326 0.216-3.286-0.249-6.648-0.041-9.944 0.035-5.4757-9.77-3.8474-26.994-3.8967-38.161 11.346-8.008 21.263-17.623 33.373-24.592z" fill="#E1E4FD"/> <path transform="matrix(2.2109 0 0 2.211 -.00012207 0)" d="m216.94 479.63c12.934 6.351 33.404 17.977 38.087 32.25 2.973 9.062 0.115 19.751-4.138 27.926-0.461 0.887-0.279 0.567-0.777 1.339q-21.319-0.321-42.637 0.043c-0.32-20.952 1.977-41.845 9.465-61.558z" fill="#E1E4FD"/> <path transform="matrix(2.2109 0 0 2.211 -.00012207 0)" d="m678.81 92.87c67.003 27.659 126.87 75.962 173.24 131.34 7.498 8.954 14.356 18.509 21.349 27.861 6.013 7.939 12.055 15.853 16.892 24.583-2.216 6.36-0.888 66.886-0.933 79.316-0.039 10.556-0.628 21.189-0.416 31.732 0.066 3.31-0.168 8.231 1.046 11.314 10.428-3.715 26.196-6.078 36.565-1.041 4.142 2.013 6.702 4.936 8.763 9.001l1.431 4.787c5.149 19.994 1.364 37.441-8.991 55.007-12.864 21.824-28.713 41.79-41.213 63.857-3.186 4.546-6.266 9.23-9.686 13.601l-6.461 9.542c-10.09 12.505-20.714 22.4-35.151 29.926-8.529 3.073-16.443 5.157-25.423 6.579-11.658 0.599-23.348-0.041-35.02 0.308l-98.994-0.057c-3.676-0.284-7.398-0.116-11.083-0.054-18.074 0.148-36.101-0.482-54.175 0.05l-7.653-1.779c-1.661-1.148-3.302-2.312-4.73-3.748q-0.413-0.411-0.806-0.842-0.392-0.431-0.763-0.881-0.37-0.45-0.718-0.918-0.347-0.468-0.671-0.953t-0.623-0.985q-0.3-0.5-0.574-1.014-0.274-0.515-0.522-1.042-0.248-0.528-0.47-1.067t-0.416-1.088q-0.195-0.55-0.362-1.108-0.167-0.559-0.306-1.125t-0.25-1.138q-0.11-0.572-0.192-1.149-0.083-0.577-0.136-1.158-0.053-0.58-0.077-1.163-0.025-0.582-0.02-1.165c0.071-5.831 2.288-11.56 6.538-15.615 9.069-8.653 22.557-7.074 34.033-6.809 10.353 0.017 20.799-0.225 31.142 0.092 5.257 0.037 10.541 0.186 15.795-0.014 12.91-0.371 25.822 0.412 38.733-0.272 0.079-0.232 0.161-0.463 0.237-0.696 7.689-23.805 21.53-81.618 9.899-105.03l-0.499-5.352q-0.109-0.842-0.242-1.681c-1.931-12.442-11.046-23.103-20.967-30.234-4.446-2.79-8.363-6.446-12.346-9.849-3.326-1.266-6.081-2.001-9.629-1.104l-5.134 0.441c-0.998-16.505-0.144-33.483-0.112-50.048 0.058-30.002-0.021-59.968 0.44-89.966q1.126-79.599-0.341-159.19z" fill="#E1E4FD"/> <path transform="matrix(2.2109 0 0 2.211 -.00012207 0)" d="m873.4 252.07c6.013 7.939 12.055 15.853 16.892 24.583-2.216 6.36-0.888 66.886-0.933 79.316-0.039 10.556-0.628 21.189-0.416 31.732 0.066 3.31-0.168 8.231 1.046 11.314-6.57 5.385-11.384 11.405-16.42 18.137-1.758-25.935 0.203-52.501-0.319-78.539 0.194-4.952 0.104-9.962 0.148-14.92q-0.709-35.811 2e-3 -71.623z" fill="#A3A7F2"/> <path transform="matrix(2.2109 0 0 2.211 -.00012207 0)" d="m769.4 356.99c-8.686-8.655-10.528-17.66-14.054-28.854-1.185-3.763-2.915-7.526-3.684-11.39-1.225-6.158-0.067-13.237 3.469-18.467 3.712-5.491 9.663-8.734 16.092-9.921 10.636-1.964 23.368 0.253 32.263 6.554 8.38 5.938 11.086 13.519 12.756 23.28-0.149 4.049-0.134 8.181-1.005 12.151-1.687 5.548-3.788 10.755-7.11 15.547-3.405 4.912-16.042 14.4-12.832 20.062 5.224 9.216 34.797 9.245 50.206 43.539 3.358 7.475 5.235 15.281 6.378 23.362 0.51 3.611 0.673 7.545 1.791 11.011q-5.647 8.024-11.583 15.837c-6.265 0.726-14.972 0.941-19.159 6.342-2.428 3.132-2.394 6.618-1.94 10.332-0.549 3.755-38.326 61.141-43.566 66.487-13.322 6.412-44.318 2.047-59.922 2.722 0.079-0.232 0.161-0.463 0.237-0.696 7.689-23.805 21.53-81.618 9.899-105.03l-0.499-5.352q-0.109-0.842-0.242-1.681c-1.931-12.442-11.046-23.103-20.967-30.234 11.307-12.916 24.923-22.226 41.001-28.216 6.147-2.291 12.721-4.122 18.41-7.414l0.774-0.453c1.47-3.057 2.342-6.271 3.287-9.517z" fill="#8F92E6"/> <path transform="matrix(2.2109 0 0 2.211 -.00012207 0)" d="m889.99 399.02c10.428-3.715 26.196-6.078 36.565-1.041 4.142 2.013 6.702 4.936 8.763 9.001l1.431 4.787c5.149 19.994 1.364 37.441-8.991 55.007-12.864 21.824-28.713 41.79-41.213 63.857-3.186 4.546-6.266 9.23-9.686 13.601l-6.461 9.542c-10.09 12.505-20.714 22.4-35.151 29.926-8.529 3.073-16.443 5.157-25.423 6.579-11.658 0.599-23.348-0.041-35.02 0.308l-98.994-0.057c-3.676-0.284-7.398-0.116-11.083-0.054-18.074 0.148-36.101-0.482-54.175 0.05l-7.653-1.779c-1.661-1.148-3.302-2.312-4.73-3.748q-0.413-0.411-0.806-0.842-0.392-0.431-0.763-0.881-0.37-0.45-0.718-0.918-0.347-0.468-0.671-0.953t-0.623-0.985q-0.3-0.5-0.574-1.014-0.274-0.515-0.522-1.042-0.248-0.528-0.47-1.067t-0.416-1.088q-0.195-0.55-0.362-1.108-0.167-0.559-0.306-1.125t-0.25-1.138q-0.11-0.572-0.192-1.149-0.083-0.577-0.136-1.158-0.053-0.58-0.077-1.163-0.025-0.582-0.02-1.165c0.071-5.831 2.288-11.56 6.538-15.615 9.069-8.653 22.557-7.074 34.033-6.809 10.353 0.017 20.799-0.225 31.142 0.092 5.257 0.037 10.541 0.186 15.795-0.014 12.91-0.371 25.822 0.412 38.733-0.272 15.604-0.675 46.6 3.69 59.922-2.722 5.24-5.346 43.017-62.732 43.566-66.487-0.454-3.714-0.488-7.2 1.94-10.332 4.187-5.401 12.894-5.616 19.159-6.342q5.936-7.813 11.583-15.837c6.4-9.073 13.438-17.675 19.896-26.708 5.036-6.732 9.85-12.752 16.42-18.137z" fill="#423F76"/> <path transform="matrix(2.2109 0 0 2.211 -.00012207 0)" d="m889.99 399.02c10.428-3.715 26.196-6.078 36.565-1.041 4.142 2.013 6.702 4.936 8.763 9.001-10.193 1.503-14.602 3.735-20.741 12.038-5.967 8.072-11.203 16.762-16.796 25.104l-31.178 46.062c-5.392 7.984-10.414 17.527-16.734 24.717-1.362 1.549-2.639 2.316-4.634 2.786-2.684-0.511-4.371-3.125-5.82-5.263-5.648-8.331-15.47-26.702-18.423-36.048-0.454-3.714-0.488-7.2 1.94-10.332 4.187-5.401 12.894-5.616 19.159-6.342q5.936-7.813 11.583-15.837c6.4-9.073 13.438-17.675 19.896-26.708 5.036-6.732 9.85-12.752 16.42-18.137z" fill="#0F0845"/> <path transform="matrix(2.2109 0 0 2.211 -.00012207 0)" d="m936.75 411.76c5.149 19.994 1.364 37.441-8.991 55.007-12.864 21.824-28.713 41.79-41.213 63.857-3.186 4.546-6.266 9.23-9.686 13.601l-6.461 9.542c-10.09 12.505-20.714 22.4-35.151 29.926-8.529 3.073-16.443 5.157-25.423 6.579-11.658 0.599-23.348-0.041-35.02 0.308l-98.994-0.057c-3.676-0.284-7.398-0.116-11.083-0.054-18.074 0.148-36.101-0.482-54.175 0.05l-7.653-1.779c-1.661-1.148-3.302-2.312-4.73-3.748q-0.413-0.411-0.806-0.842-0.392-0.431-0.763-0.881-0.37-0.45-0.718-0.918-0.347-0.468-0.671-0.953t-0.623-0.985q-0.3-0.5-0.574-1.014-0.274-0.515-0.522-1.042-0.248-0.528-0.47-1.067t-0.416-1.088q-0.195-0.55-0.362-1.108-0.167-0.559-0.306-1.125t-0.25-1.138q-0.11-0.572-0.192-1.149-0.083-0.577-0.136-1.158-0.053-0.58-0.077-1.163-0.025-0.582-0.02-1.165c0.071-5.831 2.288-11.56 6.538-15.615 9.069-8.653 22.557-7.074 34.033-6.809 10.353 0.017 20.799-0.225 31.142 0.092 5.257 0.037 10.541 0.186 15.795-0.014 12.91-0.371 25.822 0.412 38.733-0.272 15.604-0.675 46.6 3.69 59.922-2.722 3e-3 1.49-0.771 2.715-1.757 3.775-3.33 3.579-7.568 4.595-12.219 5.19-13.305 1.701-27.593-0.047-41.04 0.112-38.223 0.451-76.496 0.234-114.7 1.6-1.564 0.986-3.136 1.985-4.532 3.203-2.339 2.039-6.643 6.273-6.713 9.519-0.03 1.41 0.578 1.689 1.508 2.637 1.307-1.075 191.1 3.932 215.58-1.911 39.111-9.333 60.396-53.078 80.984-83.718 9.735-14.489 20.927-28.832 29.549-43.947 4.879-8.552 7.044-18.688 12.284-26.977l0.373-0.579z" fill="#0F0845"/> <path transform="matrix(2.2109 0 0 2.211 -.00012207 0)" d="m411.33 102.82c5.069-2.511 11.277-4.0889 16.648-5.9787l0.679 205.49c-5.829 1.56-10.781 3.427-15.896 6.643-11.223 10.04-18.297 20.986-19.182 36.388-0.928 16.15 5.804 31.905 16.554 43.738 3.581 3.941 7.522 7.586 11.411 11.222-23.294 20.829-75.513 67.366-77.528 98.439-0.664 10.237 3.577 19.691 10.29 27.224 14.278 16.021 36.132 25.109 54.319 35.841q8.809 4.113 17.365 8.73c11.494 5.418 24.126 10.039 34.779 16.98-1.095 2.513-2.125 5.092-3.311 7.56-16.312 33.111-23.328 58.878-15.712 95.671 1.285 4.344 2.482 8.741 4.014 13.005 1.782 5.066 3.638 10.015 5.807 14.932 9.935 18.895 20.654 38.815 32.205 56.671 0.087 18.614-0.112 37.307 0.836 55.899-22.644-0.6-45.477-0.017-68.138-0.015l-137.63-0.039c1.114-1.762 2.225-3.562 3.148-5.432 4.745-9.616 2.994-25.838-0.401-35.744-0.926-8.628 0.283-17.848 0.174-26.566q-0.667-36.243-0.415-72.49c0.721-33.082-0.125-66.291 0.032-99.391 0.043-9.033-0.972-27.736 0.893-35.808 1.702-0.946 3.981-0.546 5.875-0.467 1.301-0.276 2.661-0.536 3.89-1.057 1.849-0.784 3.329-2.196 3.958-4.131 0.546-1.681 0.299-3.202-0.639-4.687-1.557-2.463-3.794-3.334-6.513-3.962 0.641-1.386 0.781-2.746 0.812-4.265 0.747-36.199-0.898-72.615-0.957-108.84l-0.031-264.9c6.062-4.02 12.267-7.849 18.407-11.751 29.905-21.334 69.772-36.08 104.26-48.917z" fill="#E1E4FD"/> <path transform="matrix(2.2109 0 0 2.211 -.00012207 0)" d="m411.33 102.82c5.069-2.511 11.277-4.0889 16.648-5.9787l0.679 205.49c-5.829 1.56-10.781 3.427-15.896 6.643-1.671-21.009-0.768-42.515-0.759-63.591q3e-3 -7.397-0.091-14.793c0.745-28.24 0.133-56.447 0.114-84.69-7e-3 -10.989 1.118-33.96-0.695-43.084z" fill="#A3A7F2"/> <path transform="matrix(2.2109 0 0 2.211 -.00012207 0)" d="m307.07 151.73c1.092 10.124 0.388 20.766 0.318 30.963q-0.296 26.729-0.062 53.459l-0.02 8.691-0.015 78.907 0.019 7.154q0.87 58.072 0.682 116.15l-9e-3 6.734 0.026 236.85c19.667 1.675 39.991 1.059 59.746 0.84 13.563-0.15 27.375 0.17 40.891-0.836l-0.026-128.82q8.809 4.113 17.365 8.73c11.494 5.418 24.126 10.039 34.779 16.98-1.095 2.513-2.125 5.092-3.311 7.56-16.312 33.111-23.328 58.878-15.712 95.671 1.285 4.344 2.482 8.741 4.014 13.005 1.782 5.066 3.638 10.015 5.807 14.932 9.935 18.895 20.654 38.815 32.205 56.671 0.087 18.614-0.112 37.307 0.836 55.899-22.644-0.6-45.477-0.017-68.138-0.015l-137.63-0.039c1.114-1.762 2.225-3.562 3.148-5.432 4.745-9.616 2.994-25.838-0.401-35.744-0.926-8.628 0.283-17.848 0.174-26.566q-0.667-36.243-0.415-72.49c0.721-33.082-0.125-66.291 0.032-99.391 0.043-9.033-0.972-27.736 0.893-35.808 1.702-0.946 3.981-0.546 5.875-0.467 1.301-0.276 2.661-0.536 3.89-1.057 1.849-0.784 3.329-2.196 3.958-4.131 0.546-1.681 0.299-3.202-0.639-4.687-1.557-2.463-3.794-3.334-6.513-3.962 0.641-1.386 0.781-2.746 0.812-4.265 0.747-36.199-0.898-72.615-0.957-108.84l-0.031-264.9c6.062-4.02 12.267-7.849 18.407-11.751z" fill="#A3A7F2"/> <path transform="matrix(2.2109 0 0 2.211 -.00012207 0)" d="m281.34 690.99c0.721-33.082-0.125-66.291 0.032-99.391 0.043-9.033-0.972-27.736 0.893-35.808 1.702-0.946 3.981-0.546 5.875-0.467 3.026 6.047 2.211 117.94 1.36 135.3l-8.16 0.369z" fill="#E1E4FD"/> <path transform="matrix(2.2109 0 0 2.211 -.00012207 0)" d="m425.99 570.56c11.494 5.418 24.126 10.039 34.779 16.98-1.095 2.513-2.125 5.092-3.311 7.56-16.312 33.111-23.328 58.878-15.712 95.671-5.26 0.35-10.624 0.169-15.898 0.197-0.664-40.139 0.137-80.267 0.142-120.41z" fill="#E1E4FD"/> <path transform="matrix(2.2109 0 0 2.211 -.00012207 0)" d="m445.76 703.77c1.782 5.066 3.638 10.015 5.807 14.932l-169.74 0.432-0.093-15.349 164.02-0.015z" fill="#E1E4FD"/> <path transform="matrix(2.2109 0 0 2.211 -.00012207 0)" d="m866.02 1032.8c0.729 0.52 1.526 0.98 2.4 1.2 1.311 0.33 21.559 1.57 22.267 1.42 0.426-0.09 0.854-0.32 1.241-0.49 0.073 0.13 0.143 0.26 0.22 0.4 3.552 6.05 10.645 9.43 13.525 16.1 2.72 6.3 20.594 104.03 20.411 113.11 2.256 15.08-3.842 33.72-12.834 45.78-4.949 6.64-15.603 17.81-24.63 18.29-0.754 0.04-0.77 0.01-1.399-0.12-0.532 0.38-0.995 0.89-1.595 1.16-2.243 1.02-9.108 0.13-11.703 0.09-9.143-0.13-23.678 2.32-31.834 0.76-0.728-0.13-0.743-0.16-1.336-0.38-6.444 1.18-14.018 0.54-20.559 0.51l-35.49-0.14-140.58 0.02-344.7-0.02-98.23 0.45c-12.641-0.02-32.831 0.91-44.552-1.11-8.195 2.01-16.154-1.35-24.359-1.4-8.65-0.05-27.78 4.48-34.805 1.8-8.0524-0.85-16.407 0.45-24.357-0.95-8.1722-1.45-15.234-6.83-19.846-13.59-6.1403-9-8.0397-20.18-6.0421-30.82 2.7277-15.33 15.018-29.38 30.31-33.02 5.753-1.37 19.101 0.11 23.124-3.67 4.266-1.47 36.839-33.15 39.37-37.99l1.36-2.04c-0.774-11.62-0.5-23.35 5.073-33.86 5.223-4.64 8.368-10.25 15.204-13.02 23.151-9.38 131.38 0.8 139.58-5.13 0.17 0.43 0.266 0.7 0.461 1.1 2.625 5.33 7.53 10.45 13.237 12.37 3.875 1.3 8.134 1.33 11.832-0.55 5.867-2.98 7.341-7.93 9.172-13.75 2.143 2.31 3.557 2.56 6.688 2.66 15.123 0.52 30.299-0.23 45.424-0.33l74.959 0.08 107.5 0.12c9.256-0.05 18.474 0.68 27.742 0.45 3.764-0.1 10.798 0.34 13.724-2 3.711 6.16 5.904 14.4 11.424 19.19 1.719 3.47 4.21 9.89 8.005 11.58l1.185 1.32c1.767 2.64 4.209 5.15 7.484 5.72 1.189 0.2 2.116-0.11 3.146-0.69 0.165 0.19 0.325 0.38 0.495 0.56 1.247 1.34 3.11 1.98 4.915 1.86 2.334-0.16 3.889-1.37 5.376-3.05 1.817 0.38 2.274 0.51 4.052-0.27 5.256-2.31 10.783-8.87 12.743-14.16-0.748-4.78 2.411-6.89 4.231-10.93 0.081-0.18 0.158-0.36 0.238-0.54-0.184-3.26-0.535-6.57-0.059-9.82 1.037 0.6 1.85 0.98 3.059 1.1 14.783 1.37 30.366 0.47 45.271 0.52 19.916 0.07 45.543 1.26 64.571-0.88 5.793-0.65 25.496-8.59 29.09-13.03 0.914 0.37 1.751 0.77 2.759 0.77 6.315-0.01 17.688-4.92 24.43-6.69 6.076-1.6 12.85-2.03 18.726-4.11 1.193-0.42 2.043-1.01 2.889-1.94z" fill="#EB5A47"/> <path transform="matrix(2.2109 0 0 2.211 -.00012207 0)" d="m677.02 1069.4c4.337 3.64 10.405 5.57 15.91 6.57 13.106 2.39 48.329 2.2 61.723 0.94 2.42-0.23 3.779-0.8 5.822-2.14-5.646 9.42-18.17 14.18-26.392 21.1-5.269 4.43-24.15 25.88-28.501 26.86-0.317 0.07-0.645 0.07-0.968 0.11-0.648 0.48-1.289 0.86-2.018 1.21-9.446 4.58-52.47 18.36-61.351 14.51-3.947-1.71-6.59-6.63-7.888-10.54-3.165-9.56-5.251-30.74-0.746-39.66 1.767 2.64 4.209 5.15 7.484 5.72 1.189 0.2 2.116-0.11 3.146-0.69 0.165 0.19 0.325 0.38 0.495 0.56 1.247 1.34 3.11 1.98 4.915 1.86 2.334-0.16 3.889-1.37 5.376-3.05 1.817 0.38 2.274 0.51 4.052-0.27 5.256-2.31 10.783-8.87 12.743-14.16 3.296-1.32 4.837-5.91 6.198-8.93z" fill="#0F0845"/> <path transform="matrix(2.2109 0 0 2.211 -.00012207 0)" d="m301.26 1056.2c0.17 0.43 0.266 0.7 0.461 1.1 2.625 5.33 7.53 10.45 13.237 12.37 3.875 1.3 8.134 1.33 11.832-0.55 5.867-2.98 7.341-7.93 9.172-13.75 2.143 2.31 3.557 2.56 6.688 2.66 15.123 0.52 30.299-0.23 45.424-0.33l74.959 0.08 107.5 0.12c9.256-0.05 18.474 0.68 27.742 0.45 3.764-0.1 10.798 0.34 13.724-2 3.711 6.16 5.904 14.4 11.424 19.19 1.719 3.47 4.21 9.89 8.005 11.58l1.185 1.32c-4.505 8.92-2.419 30.1 0.746 39.66 1.298 3.91 3.941 8.83 7.888 10.54 8.881 3.85 51.905-9.93 61.351-14.51 0.729-0.35 1.37-0.73 2.018-1.21-1.506 4.15-16.9 24.4-20.359 25.92-0.155 0.06-0.326 0.09-0.489 0.14-7.315 2.83-107.95 1.53-124.04 1.53l-331.83-0.57-90.015-0.19c-10.17-0.02-26.265 1.45-35.75-0.32l-1.459-1.19c4.266-1.47 36.839-33.15 39.37-37.99l1.36-2.04c-0.774-11.62-0.5-23.35 5.073-33.86 5.223-4.64 8.368-10.25 15.204-13.02 23.151-9.38 131.38 0.8 139.58-5.13z" fill="#4D4C9C"/> <path transform="matrix(2.2109 0 0 2.211 -.00012207 0)" d="m301.26 1056.2c0.17 0.43 0.266 0.7 0.461 1.1 2.625 5.33 7.53 10.45 13.237 12.37 3.875 1.3 8.134 1.33 11.832-0.55 5.867-2.98 7.341-7.93 9.172-13.75 2.143 2.31 3.557 2.56 6.688 2.66 15.123 0.52 30.299-0.23 45.424-0.33l74.959 0.08 107.5 0.12c9.256-0.05 18.474 0.68 27.742 0.45 3.764-0.1 10.798 0.34 13.724-2 3.711 6.16 5.904 14.4 11.424 19.19 1.719 3.47 4.21 9.89 8.005 11.58-1.703 1.57-2.324 1.92-4.697 2.14-10.672 1-21.557 1.15-32.27 1.69l-61.734 3.09-190.28 9.62-138.36 6.59c-18.025 0.83-41.495 3.67-58.826 3.02-1.856-0.07-3.219-0.49-4.453-1.93-0.37-0.44-0.479-0.64-0.758-1.09l1.36-2.04c-0.774-11.62-0.5-23.35 5.073-33.86 5.223-4.64 8.368-10.25 15.204-13.02 23.151-9.38 131.38 0.8 139.58-5.13z" fill="#423F76"/> <path transform="matrix(2.2109 0 0 2.211 -.00012207 0)" d="m301.26 1056.2c0.17 0.43 0.266 0.7 0.461 1.1 2.625 5.33 7.53 10.45 13.237 12.37 3.875 1.3 8.134 1.33 11.832-0.55 5.867-2.98 7.341-7.93 9.172-13.75 2.143 2.31 3.557 2.56 6.688 2.66 15.123 0.52 30.299-0.23 45.424-0.33l74.959 0.08 107.5 0.12c9.256-0.05 18.474 0.68 27.742 0.45 3.764-0.1 10.798 0.34 13.724-2 3.711 6.16 5.904 14.4 11.424 19.19-1.256 0.7-2.264 1.06-3.703 1.24-6.067 0.77-12.622 0.43-18.744 0.54q-18.133 0.41-36.27 0.28-43.929-0.48-87.862-0.44l-239.03 0.05c-16.818-0.04-33.676 0.55-50.474 0.38-3.694-0.03-9.597 0.51-12.572-1.79-2.985 5.73-26.326 28.97-32.033 32.51l-1.324-0.1c-0.774-11.62-0.5-23.35 5.073-33.86 5.223-4.64 8.368-10.25 15.204-13.02 23.151-9.38 131.38 0.8 139.58-5.13z" fill="#EB5A47"/> <path transform="matrix(2.2109 0 0 2.211 -.00012207 0)" d="m427.98 96.838c41.037-14.304 86.206-26.072 129.75-26.622 17.659-0.2233 35.386 1.5855 52.828 4.221 17.744 2.681 35.381 6.3463 52.36 12.225 5.253 2.1899 10.475 4.4738 15.901 6.2079q1.467 79.593 0.341 159.19c-0.461 29.998-0.382 59.964-0.44 89.966-0.032 16.565-0.886 33.543 0.112 50.048l5.134-0.441c3.548-0.897 6.303-0.162 9.629 1.104 3.983 3.403 7.9 7.059 12.346 9.849 9.921 7.131 19.036 17.792 20.967 30.234q0.133 0.839 0.242 1.681l0.499 5.352c11.631 23.413-2.21 81.226-9.899 105.03-0.076 0.233-0.158 0.464-0.237 0.696-12.911 0.684-25.823-0.099-38.733 0.272-5.254 0.2-10.538 0.051-15.795 0.014-10.343-0.317-20.789-0.075-31.142-0.092-11.476-0.265-24.964-1.844-34.033 6.809-4.25 4.055-6.467 9.784-6.538 15.615q-5e-3 0.583 0.02 1.165 0.024 0.583 0.077 1.163 0.053 0.581 0.136 1.158 0.082 0.577 0.192 1.149 0.111 0.572 0.25 1.138t0.306 1.125q0.167 0.558 0.362 1.108 0.194 0.549 0.416 1.088 0.221 0.539 0.47 1.067 0.248 0.527 0.522 1.042 0.274 0.514 0.574 1.014 0.299 0.5 0.623 0.985t0.671 0.953q0.348 0.468 0.718 0.918 0.371 0.45 0.763 0.881 0.393 0.431 0.806 0.842c1.428 1.436 3.069 2.6 4.73 3.748-27.857 11.83-57.239 11.968-87.026 11.452-7.355-0.127-16.846 0.56-23.857-1.654-2.452 0.069-4.924 0.151-7.377 0.073-8.488-0.27-15.439-3.753-21.2-9.872l-2.673-1.206c-10.653-6.941-23.285-11.562-34.779-16.98q-8.556-4.617-17.365-8.73c-18.187-10.732-40.041-19.82-54.319-35.841-6.713-7.533-10.954-16.987-10.29-27.224 2.015-31.073 54.234-77.61 77.528-98.439-3.889-3.636-7.83-7.281-11.411-11.222-10.75-11.833-17.482-27.588-16.554-43.738 0.885-15.402 7.959-26.348 19.182-36.388 5.115-3.216 10.067-5.083 15.896-6.643l-0.679-205.49z" fill="#E1E4FD"/> <path transform="matrix(2.2109 0 0 2.211 -.00012207 0)" d="m662.91 86.662c5.253 2.1899 10.475 4.4738 15.901 6.2079q1.467 79.593 0.341 159.19c-0.461 29.998-0.382 59.964-0.44 89.966-0.032 16.565-0.886 33.543 0.112 50.048-5.835 5.071-10.397 9.551-10.912 17.714-0.477 7.541 2.145 15.881 4.03 23.137-2.376 4.114-4.791 7.942-7.723 11.7-0.704-10.707-0.36-21.706-0.574-32.45q-0.616-50.51-0.376-101.02l-0.359-224.49z" fill="#A3A7F2"/> <path transform="matrix(2.2109 0 0 2.211 -.00012207 0)" d="m517.88 195.94c4.396-0.919 8.631-2.765 12.832-4.324 10.415-3.867 21.034-4.566 31.943-2.169 11.158 2.451 21.74 9.369 27.807 19.127 5.489 8.826 8.087 21.269 5.555 31.459-1.54 6.195-4.627 9.61-9.983 12.92l0.827 3.834-0.203 3.894c2.258 23.165 8.537 58.697-7.584 78.091-5.113 6.151-11.079 9.225-18.521 11.77l-0.082 12.943c6.788 3.386 13.337 6.389 19.101 11.404-1.219 1.794 11.193 25.882 6.395 37.67-1.009 2.478-2.991 4.176-5.472 5.087-9.179 3.372-21.499-0.727-29.775-4.825-13.28-6.578-50.321-33.993-54.878-47.738-4.992-1.241-10.24 0.549-15.122 1.717-24.451 7.847-40.048 16.374-59.176 33.528-3.889-3.636-7.83-7.281-11.411-11.222-10.75-11.833-17.482-27.588-16.554-43.738 0.885-15.402 7.959-26.348 19.182-36.388 5.115-3.216 10.067-5.083 15.896-6.643 4.516-0.651 10.669-0.923 14.705-3.063 4.015-2.129 6.642-7.198 8.494-11.142 5.268-11.216 6.809-17.225 2.976-29.028-1.182-3.638-2.495-7.425-2.787-11.264-0.552-7.275 1.323-15.796 3.553-22.676 3.911-12.067 11.599-23.851 23.242-29.635 13.059-6.486 25.881-4.098 39.04 0.411z" fill="#380303"/> <path transform="matrix(2.2109 0 0 2.211 -.00012207 0)" d="m558.72 225.34q1.813 0.586 3.586 1.285c11.996 4.809 18.76 14.919 23.72 26.319l0.827 3.834-0.203 3.894c2.258 23.165 8.537 58.697-7.584 78.091-5.113 6.151-11.079 9.225-18.521 11.77l-0.082 12.943c6.788 3.386 13.337 6.389 19.101 11.404-1.219 1.794 11.193 25.882 6.395 37.67-1.009 2.478-2.991 4.176-5.472 5.087-9.179 3.372-21.499-0.727-29.775-4.825-13.28-6.578-50.321-33.993-54.878-47.738 0.617-0.371 1.264-0.727 1.771-1.252 2.939-3.044 1.755-11.667 1.617-15.666-1.423-6.862-0.643-14.898-0.594-21.888l-0.538-8.395q-2.332-0.381-4.637-0.905-0.626-0.142-1.245-0.314-0.618-0.173-1.227-0.377t-1.207-0.438-1.183-0.498q-0.586-0.264-1.157-0.557t-1.127-0.614q-0.556-0.322-1.095-0.671t-1.06-0.724q-0.521-0.376-1.022-0.777t-0.981-0.827q-0.481-0.426-0.939-0.876-0.459-0.449-0.894-0.922-0.435-0.472-0.846-0.965t-0.796-1.007q-0.386-0.513-0.745-1.045t-0.691-1.082c-4.009-6.56-5.647-15.371-3.703-22.865 1.031-3.976 3.252-7.996 6.965-10.02 2.244-1.224 4.79-1.421 7.194-0.555 5.386 1.939 7.73 6.964 10.073 11.725 8.814-12.472 10.287-25.642 11.732-40.389 7.384 2.082 14.889 3.34 22.536 1.989 12.211-2.156 19.804-10.129 26.685-19.819z" fill="#FE9E9C"/> <path transform="matrix(2.2109 0 0 2.211 -.00012207 0)" d="m573.56 266.73c2.594 0.956 4.684 2.29 5.821 4.925 1.788 4.14 0.185 8.667-1.233 12.642-0.712-0.044-0.443 5e-3 -1.407-0.31-1.763-0.576-2.991-1.887-3.761-3.544-2.083-4.481-0.958-9.311 0.58-13.713z" fill="#380303"/> <path transform="matrix(2.2109 0 0 2.211 -.00012207 0)" d="m586.66 260.68c-4.261 0.052-8.794 0.357-13.023-0.13-2.783-0.32-5.479-0.922-7.228-3.188 0.747-1.085 1.082-1.443 2.333-2.002 6.16-2.753 12.239-0.974 18.121 1.426l-0.203 3.894z" fill="#380303"/> <path transform="matrix(2.2109 0 0 2.211 -.00012207 0)" d="m480.48 278.97c1.935 0.169 3.577 0.41 5.259 1.451 3.355 2.075 5.972 5.633 6.751 9.514 0.775 3.866 0.144 6.384-2.06 9.579-1.186-0.151-2.414-0.338-3.542-0.746q-0.205-0.073-0.402-0.167-0.196-0.094-0.382-0.208-0.185-0.114-0.358-0.247-0.172-0.134-0.329-0.285-0.157-0.15-0.297-0.317-0.141-0.167-0.262-0.347-0.122-0.181-0.224-0.373-0.102-0.193-0.183-0.395c-1.14-2.818 1.022-6.704 2.081-9.322-2.296-2.615-4.246-5.161-6.052-8.137z" fill="#EB5A47"/> <path transform="matrix(2.2109 0 0 2.211 -.00012207 0)" d="m530.74 271.29c1.055 0.238 2.049 0.488 3.012 0.996 1.887 0.995 3.171 2.729 3.771 4.761 1.295 4.381-0.661 8.639-2.581 12.466-0.672-0.144-0.603-0.108-1.374-0.394-2.361-0.874-4.017-2.44-4.898-4.814-1.654-4.459 0.046-9.037 2.07-13.015z" fill="#380303"/> <path transform="matrix(2.2109 0 0 2.211 -.00012207 0)" d="m575.98 309.82c1.135 0.639 1.449 1.326 2.081 2.418-0.228 1.903-0.728 2.845-2.269 4.039-6.927 5.361-14.09 4.599-22.167 3.311-1.219-0.615-1.611-1.158-2.371-2.242 1.041-3.807 15.03-2.161 19.06-3.621 2.236-0.81 3.923-2.351 5.666-3.905z" fill="#EB5A47"/> <path transform="matrix(2.2109 0 0 2.211 -.00012207 0)" d="m561.29 273.89c1.183 0.771 2.023 1.52 2.768 2.725 3.915 6.33 10.021 18.887 8.346 26.415-0.746 0.1-1.687 0.276-2.429 0.159-1.753-0.276-2.842-1.532-3.718-2.984-3.62-6.001-6.625-19.678-4.967-26.315z" fill="#EB5A47"/> <path transform="matrix(2.2109 0 0 2.211 -.00012207 0)" d="m533.62 257.5c2.82-0.018 6.123-0.126 8.81 0.861 1.604 0.588 2.169 1.245 2.889 2.704l-0.596 1.021c-5.259 3.363-13.614 3.034-19.7 4.057-1.245 0.661-2.495 1.341-3.78 1.92-1.697 0.764-2.777 0.79-4.47 0.112-0.212-1.624 0.18-2.333 1.239-3.642 4.032-4.982 9.607-6.316 15.608-7.033z" fill="#380303"/> <path transform="matrix(2.2109 0 0 2.211 -.00012207 0)" d="m498.63 326.27c19.08 13.709 37.247 22.77 61.331 23.692l-0.028 11.444c-22.721-6.947-43.192-14.273-60.336-31.664-0.124 6.108-3e-3 12.326-0.373 18.416-1.423-6.862-0.643-14.898-0.594-21.888z" fill="#EB5A47"/> <path transform="matrix(2.2109 0 0 2.211 -.00012207 0)" d="m480.72 366.8c4.882-1.168 10.13-2.958 15.122-1.717 4.557 13.745 41.598 41.16 54.878 47.738 8.276 4.098 20.596 8.197 29.775 4.825 2.481-0.911 4.463-2.609 5.472-5.087 4.798-11.788-7.614-35.876-6.395-37.67 20.131 16.968 32.829 45.795 43.455 69.276 3.983 9.745 8.803 18.088 15.154 26.426 9.725-7.807 18.322-16.141 26.04-25.959 2.932-3.758 5.347-7.586 7.723-11.7-1.885-7.256-4.507-15.596-4.03-23.137 0.515-8.163 5.077-12.643 10.912-17.714l5.134-0.441c3.548-0.897 6.303-0.162 9.629 1.104 3.983 3.403 7.9 7.059 12.346 9.849 9.921 7.131 19.036 17.792 20.967 30.234q0.133 0.839 0.242 1.681l0.499 5.352c11.631 23.413-2.21 81.226-9.899 105.03-0.076 0.233-0.158 0.464-0.237 0.696-12.911 0.684-25.823-0.099-38.733 0.272-5.254 0.2-10.538 0.051-15.795 0.014-10.343-0.317-20.789-0.075-31.142-0.092-11.476-0.265-24.964-1.844-34.033 6.809-4.25 4.055-6.467 9.784-6.538 15.615q-5e-3 0.583 0.02 1.165 0.024 0.583 0.077 1.163 0.053 0.581 0.136 1.158 0.082 0.577 0.192 1.149 0.111 0.572 0.25 1.138t0.306 1.125q0.167 0.558 0.362 1.108 0.194 0.549 0.416 1.088 0.221 0.539 0.47 1.067 0.248 0.527 0.522 1.042 0.274 0.514 0.574 1.014 0.299 0.5 0.623 0.985t0.671 0.953q0.348 0.468 0.718 0.918 0.371 0.45 0.763 0.881 0.393 0.431 0.806 0.842c1.428 1.436 3.069 2.6 4.73 3.748-27.857 11.83-57.239 11.968-87.026 11.452-7.355-0.127-16.846 0.56-23.857-1.654-2.452 0.069-4.924 0.151-7.377 0.073-8.488-0.27-15.439-3.753-21.2-9.872l-2.673-1.206c-10.653-6.941-23.285-11.562-34.779-16.98q-8.556-4.617-17.365-8.73c-18.187-10.732-40.041-19.82-54.319-35.841-6.713-7.533-10.954-16.987-10.29-27.224 2.015-31.073 54.234-77.61 77.528-98.439 19.128-17.154 34.725-25.681 59.176-33.528z" fill="#FE9E9C"/> <path transform="matrix(2.2109 0 0 2.211 -.00012207 0)" d="m703.32 467.66c-0.029-1.503 0.095-2.504 0.809-3.85 2.675-5.042 18.83-27.905 23.017-29.31l0.499 5.352c-6.038 11.57-12.943 20.991-24.325 27.808z" fill="#EB5A47"/> <path transform="matrix(2.2109 0 0 2.211 -.00012207 0)" d="m663.34 515.6c-0.115 10.072-0.021 20.209-0.366 30.273-10.343-0.317-20.789-0.075-31.142-0.092 3.86-3.875 9.022-6.735 13.146-10.409 6.6-5.881 12.422-13.207 18.362-19.772z" fill="#E1E4FD"/> <path transform="matrix(2.2109 0 0 2.211 -.00012207 0)" d="m683.96 391.64c3.548-0.897 6.303-0.162 9.629 1.104-4.151 4.774-11.536 6.548-14.574 12.394-4.02 7.734-1.439 24.09 4.001 30.709 4.015 4.885 12.732 7.567 14.586 14.001l-0.74 0.751c-0.314-0.018-0.629-0.027-0.942-0.055-5.26-0.46-13.356-5.137-16.501-9.331-6.417-8.557-9.55-20.291-8.057-30.903 1.218-8.663 5.848-13.629 12.598-18.67z" fill="#EB5A47"/> <path transform="matrix(2.2109 0 0 2.211 -.00012207 0)" d="m678.71 496.29-0.082 33.765c1e-3 5.133-0.416 10.73 0.141 15.802-5.254 0.2-10.538 0.051-15.795 0.014 0.345-10.064 0.251-20.201 0.366-30.273 4.874-6.596 10.236-12.908 15.37-19.308z" fill="#8F92E6"/> <path transform="matrix(2.2109 0 0 2.211 -.00012207 0)" d="m411.1 488.2c18.889-7.067 41.339-34.076 56.054-36.463l0.794 0.606c-1.361 6.458-14.839 14.782-19.908 19.067-7.446 5.746-16.5 11.594-22.888 18.438-3.624 2.952-7.133 5.962-10.579 9.121-6.902-4.618-26.025-16.071-28.379-23.51-0.401-1.265-0.056-1.56 0.527-2.659 4.453-0.986 12.497 8.986 16.346 11.758 2.379 1.712 5.298 2.651 8.033 3.642z" fill="#EB5A47"/> <path transform="matrix(2.2109 0 0 2.211 -.00012207 0)" d="m470.2 534.58c6.241-2.221 19.741-8.632 26.293-6.413 0.651 0.96 0.818 0.78 0.577 2.04-0.565 2.957-3.487 5.127-5.918 6.623q-1.48 0.898-3.01 1.709c9.313 2.874 19.103 5.99 23.93 15.277 3.49 6.713 2.951 14.869 0.612 21.861-3.529 10.55-11.092 17.633-20.667 22.869-2.452 0.069-4.924 0.151-7.377 0.073-8.488-0.27-15.439-3.753-21.2-9.872 9.368 2.761 20.215 6.712 29.524 1.672 6.667-3.61 11.135-10.536 13.226-17.674 1.707-5.828 2.064-12.658-0.967-18.127-5.929-10.701-24.274-15.302-35.023-20.038z" fill="#EB5A47"/> <path transform="matrix(2.2109 0 0 2.211 -.00012207 0)" d="m448.04 471.41c1.984 0.527 3.98 1.025 5.945 1.621q3.492 15.502 7.518 30.873c1.013 4.929 1.882 9.95 3.319 14.775 0.9 4.66 2.029 9.296 3.054 13.931-14.85-7.171-29.447-15.901-42.511-25.972-3.428-2.927-6.94-5.33-10.792-7.669 3.446-3.159 6.955-6.169 10.579-9.121 6.388-6.844 15.442-12.692 22.888-18.438z" fill="#E1E4FD"/> <path transform="matrix(2.2109 0 0 2.211 -.00012207 0)" d="m425.16 489.85q0.149 8.394 0.213 16.79c-3.428-2.927-6.94-5.33-10.792-7.669 3.446-3.159 6.955-6.169 10.579-9.121z" fill="#8F92E6"/> <path transform="matrix(2.2109 0 0 2.211 -.00012207 0)" d="m727.64 439.86c11.631 23.413-2.21 81.226-9.899 105.03-0.076 0.233-0.158 0.464-0.237 0.696-12.911 0.684-25.823-0.099-38.733 0.272-0.557-5.072-0.14-10.669-0.141-15.802l0.082-33.765 7.328-8.349c2.832-3.848 6.117-7.333 9.317-10.873q3.919-4.752 7.958-9.402c11.382-6.817 18.287-16.238 24.325-27.808z" fill="#E1E4FD"/> <path transform="matrix(2.2109 0 0 2.211 -.00012207 0)" d="m695.36 477.06c9.206 0.376 18.432 0.888 27.647 0.835l-0.484 13.974c-10.969 0.588-27.111 3.107-36.48-3.936 2.832-3.848 6.117-7.333 9.317-10.873z" fill="#5E69E4"/> <path transform="matrix(2.2109 0 0 2.211 -.00012207 0)" d="m480.72 366.8c4.882-1.168 10.13-2.958 15.122-1.717 4.557 13.745 41.598 41.16 54.878 47.738 8.276 4.098 20.596 8.197 29.775 4.825 2.481-0.911 4.463-2.609 5.472-5.087 4.798-11.788-7.614-35.876-6.395-37.67 20.131 16.968 32.829 45.795 43.455 69.276-0.723 5.73-1.596 11.545-3.849 16.907-3.245 8.871-9.595 15.737-12.816 24.33-0.101 0.271-0.21 0.539-0.309 0.811-0.06 0.163-0.113 0.329-0.17 0.493 1.52 5.884 1.316 11.978 1.184 18.003-21.419 4.736-42.852 4.773-64.586 6.76-25.877 2.365-51.683 5.967-77.652 7.216-1.437-4.825-2.306-9.846-3.319-14.775q-4.026-15.371-7.518-30.873l1.14-0.573q0.898-0.242 1.772-0.561c12.618-4.701 22.088-14.53 27.363-26.77 11.18-25.943 6.429-53.116-3.547-78.333z" fill="#EB5A47"/> <path transform="matrix(2.2109 0 0 2.211 -.00012207 0)" d="m460.77 587.54 2.673 1.206c5.761 6.119 12.712 9.602 21.2 9.872 2.453 0.078 4.925-4e-3 7.377-0.073 7.011 2.214 16.502 1.527 23.857 1.654 29.787 0.516 59.169 0.378 87.026-11.452l7.653 1.779c18.074-0.532 36.101 0.098 54.175-0.05 3.685-0.062 7.407-0.23 11.083 0.054l98.994 0.057c11.672-0.349 23.362 0.291 35.02-0.308 4.008 43.519 9.901 86.935 15.279 130.31q11.933 97.645 24.936 195.15l10.59 79.225c1.48 11.288 2.243 27.258 5.393 37.848-0.846 0.93-1.696 1.52-2.889 1.94-5.876 2.08-12.65 2.51-18.726 4.11-6.742 1.77-18.115 6.68-24.43 6.69-1.008 0-1.845-0.4-2.759-0.77-3.594 4.44-23.297 12.38-29.09 13.03-19.028 2.14-44.655 0.95-64.571 0.88-14.905-0.05-30.488 0.85-45.271-0.52-1.209-0.12-2.022-0.5-3.059-1.1-0.476 3.25-0.125 6.56 0.059 9.82-0.08 0.18-0.157 0.36-0.238 0.54-1.82 4.04-4.979 6.15-4.231 10.93-1.96 5.29-7.487 11.85-12.743 14.16-1.778 0.78-2.235 0.65-4.052 0.27-1.487 1.68-3.042 2.89-5.376 3.05-1.805 0.12-3.668-0.52-4.915-1.86-0.17-0.18-0.33-0.37-0.495-0.56-1.03 0.58-1.957 0.89-3.146 0.69-3.275-0.57-5.717-3.08-7.484-5.72l-1.185-1.32c-3.795-1.69-6.286-8.11-8.005-11.58-5.52-4.79-7.713-13.03-11.424-19.19-8.616-7.75-45.1-76.644-49.927-90.164-4.836-13.545-7.255-27.816-9.919-41.904-0.477-8.55-0.926-17.206-0.784-25.77 0.154-9.252 0.987-18.567 0.638-27.815-0.127-3.382-0.113-6.766-1.834-9.782-9.406-16.479-24.383-30.586-36.058-45.551-9.914-12.71-18.695-29.02-30.339-39.938-11.551-17.856-22.27-37.776-32.205-56.671-2.169-4.917-4.025-9.866-5.807-14.932-1.532-4.264-2.729-8.661-4.014-13.005-7.616-36.793-0.6-62.56 15.712-95.671 1.186-2.468 2.216-5.047 3.311-7.56zm170.37 214.46c3.576 12.186 8.607 23.996 11.251 36.421 8.199 38.526 9.668 78.494 17.151 117.2 1.631 11.758 13.493 98.036 15.69 101.45 1.037 0.6 1.85 0.98 3.059 1.1 14.783 1.37 30.366 0.47 45.271 0.52 19.916 0.07 45.543 1.26 64.571-0.88 5.793-0.65 25.496-8.59 29.09-13.03-3.001-5.11-11.824-88.303-13.779-101.37-2.147-10.546-3.055-21.668-4.393-32.356-3.299-26.361-5.88-53.103-10.229-79.309-1.156-8.198-2.039-16.942-4.019-24.966l-1.302-0.702c-6.157-0.352-12.41-0.174-18.581-0.182-12.238 1.338-25.215 0.536-37.549 0.513-14.074-0.026-28.443 0.512-42.485-0.251-2.7 4.254-5.288 8.664-8.406 12.628-0.615-5.603-0.445-11.402-0.559-17.039-3.172-4.627-6.723-14.109-10.407-20.088-5.581-2.997-11.088-5.699-17.583-3.876-5.773 1.62-9.685 6.249-12.345 11.375-2.127 4.099-3.293 8.396-4.446 12.838z" fill="#8F92E6"/> <path transform="matrix(2.2109 0 0 2.211 -.00012207 0)" d="m767.96 671.24c0.557 6.651 1.371 13.162 2.471 19.745-7.685 0.59-18.411 2.034-25.662-0.554 2.871-6.336 5.484-12.676 7.87-19.209l15.321 0.018z" fill="#E1E4FD"/> <path transform="matrix(2.2109 0 0 2.211 -.00012207 0)" d="m738.36 703.85 34.015-0.053c0.364 4.071 0.685 8.143 1.336 12.181-0.32 1.099-0.187 1.78-1.237 2.367-3.306 1.847-35.619 1.845-39.376 0.447-0.329-0.122-0.654-0.256-0.97-0.411 1.899-4.943 4.01-9.728 6.232-14.531z" fill="#E1E4FD"/> <path transform="matrix(2.2109 0 0 2.211 -.00012207 0)" d="m773.71 715.98c1.87 8.363 2.433 17.572 3.312 26.108q1.844 18.554 4.021 37.071c1.145 6.529 4.618 20.008 3.249 26.243l-0.796 0.683c-6.157-0.352-12.41-0.174-18.581-0.182-12.238 1.338-25.215 0.536-37.549 0.513-14.074-0.026-28.443 0.512-42.485-0.251-2.7 4.254-5.288 8.664-8.406 12.628-0.615-5.603-0.445-11.402-0.559-17.039 0.343-27.434-1.919-55.273-0.076-82.644q15.276-0.384 30.553-0.049c5.436 0.06 21.604 1.455 25.734-0.678 0.316 0.155 0.641 0.289 0.97 0.411 3.757 1.398 36.07 1.4 39.376-0.447 1.05-0.587 0.917-1.268 1.237-2.367z" fill="#A3A7F2"/> <path transform="matrix(2.2109 0 0 2.211 -.00012207 0)" d="m781.04 779.15c1.145 6.529 4.618 20.008 3.249 26.243l-0.796 0.683c-6.157-0.352-12.41-0.174-18.581-0.182-9.252-0.644-18.879-0.148-28.171-0.149l-52.258-0.042 18.281-26.029c26.066 0.289 52.206-0.325 78.276-0.524z" fill="#5E69E4"/> <path transform="matrix(2.2109 0 0 2.211 -.00012207 0)" d="m675.81 590.53 98.994 0.057c-5.054 1.022-10.405 0.53-15.539 0.503 0.292 26.319 7.674 54.298 8.698 80.151l-15.321-0.018c-2.386 6.533-4.999 12.873-7.87 19.209-2.381 4.374-4.395 8.871-6.413 13.418-2.222 4.803-4.333 9.588-6.232 14.531-4.13 2.133-20.298 0.738-25.734 0.678q-15.277-0.335-30.553 0.049l0.038-15.01 0.02-12.782-0.531-63.815c-0.122-11.806-1.612-24.819 0.46-36.466l-0.017-0.505z" fill="#E1E4FD"/> <path transform="matrix(2.2109 0 0 2.211 -.00012207 0)" d="m675.9 691.31 43.521-0.091q-3.078 6.699-6.384 13.289c-2.247 4.8-4.741 9.6-6.642 14.545q-15.277-0.335-30.553 0.049l0.038-15.01 0.02-12.782z" fill="#A3A7F2"/> <path transform="matrix(2.2109 0 0 2.211 -.00012207 0)" d="m675.88 704.1q18.575 0.479 37.157 0.416c-2.247 4.8-4.741 9.6-6.642 14.545q-15.277-0.335-30.553 0.049l0.038-15.01z" fill="#E1E4FD"/> <path transform="matrix(2.2109 0 0 2.211 -.00012207 0)" d="m675.81 590.53 98.994 0.057c-5.054 1.022-10.405 0.53-15.539 0.503 0.292 26.319 7.674 54.298 8.698 80.151l-15.321-0.018c-2.386 6.533-4.999 12.873-7.87 19.209-2.381 4.374-4.395 8.871-6.413 13.418-2.222 4.803-4.333 9.588-6.232 14.531-4.13 2.133-20.298 0.738-25.734 0.678 1.901-4.945 4.395-9.745 6.642-14.545q3.306-6.59 6.384-13.289c3.914-7.843 9.129-16.678 10.301-25.446 0.372-2.784-0.42-5.643-0.226-8.412 0.071-1.026 0.384-1.955 1.146-2.658 3.252-3.001 13.206-1.831 17.57-1.57-0.021-20.733-1.128-41.472-1.526-62.203q-35.428 0.361-70.857 0.099l-0.017-0.505z" fill="#5E69E4"/> <path transform="matrix(2.2109 0 0 2.211 -.00012207 0)" d="m631.14 802c1.153-4.442 2.319-8.739 4.446-12.838 2.66-5.126 6.572-9.755 12.345-11.375 6.495-1.823 12.002 0.879 17.583 3.876 3.684 5.979 7.235 15.461 10.407 20.088 0.114 5.637-0.056 11.436 0.559 17.039 3.118-3.964 5.706-8.374 8.406-12.628 14.042 0.763 28.411 0.225 42.485 0.251 12.334 0.023 25.311 0.825 37.549-0.513 6.171 8e-3 12.424-0.17 18.581 0.182l1.302 0.702c1.98 8.024 2.863 16.768 4.019 24.966 4.349 26.206 6.93 52.948 10.229 79.309 1.338 10.688 2.246 21.81 4.393 32.356 1.955 13.064 10.778 96.257 13.779 101.37-3.594 4.44-23.297 12.38-29.09 13.03-19.028 2.14-44.655 0.95-64.571 0.88-14.905-0.05-30.488 0.85-45.271-0.52-1.209-0.12-2.022-0.5-3.059-1.1-2.197-3.41-14.059-89.688-15.69-101.45-7.483-38.711-8.952-78.679-17.151-117.2-2.644-12.425-7.675-24.235-11.251-36.421zm28.402 153.63c1.631 11.758 13.493 98.036 15.69 101.45 1.037 0.6 1.85 0.98 3.059 1.1 14.783 1.37 30.366 0.47 45.271 0.52 19.916 0.07 45.543 1.26 64.571-0.88 5.793-0.65 25.496-8.59 29.09-13.03-3.001-5.11-11.824-88.303-13.779-101.37-43.212 22.36-87.381 30.533-134.67 15.594-3.087-0.975-6.307-2.005-9.231-3.383z" fill="#5E69E4"/> <path transform="matrix(2.2109 0 0 2.211 -.00012207 0)" d="m764.92 805.9c6.171 8e-3 12.424-0.17 18.581 0.182l1.302 0.702c1.98 8.024 2.863 16.768 4.019 24.966q-56.373 0.367-112.75 0.066l0.405-13.026c3.118-3.964 5.706-8.374 8.406-12.628 14.042 0.763 28.411 0.225 42.485 0.251 12.334 0.023 25.311 0.825 37.549-0.513z" fill="#E1E4FD"/> <path transform="matrix(2.2109 0 0 2.211 -.00012207 0)" d="m460.77 587.54 2.673 1.206c5.761 6.119 12.712 9.602 21.2 9.872 2.453 0.078 4.925-4e-3 7.377-0.073 7.011 2.214 16.502 1.527 23.857 1.654 29.787 0.516 59.169 0.378 87.026-11.452l7.653 1.779c18.074-0.532 36.101 0.098 54.175-0.05 3.685-0.062 7.407-0.23 11.083 0.054l0.017 0.505c-2.072 11.647-0.582 24.66-0.46 36.466l0.531 63.815-0.02 12.782-0.038 15.01c-1.843 27.371 0.419 55.21 0.076 82.644-3.172-4.627-6.723-14.109-10.407-20.088-5.581-2.997-11.088-5.699-17.583-3.876-5.773 1.62-9.685 6.249-12.345 11.375-2.127 4.099-3.293 8.396-4.446 12.838 3.576 12.186 8.607 23.996 11.251 36.421 8.199 38.526 9.668 78.494 17.151 117.2 1.631 11.758 13.493 98.036 15.69 101.45-0.476 3.25-0.125 6.56 0.059 9.82-0.08 0.18-0.157 0.36-0.238 0.54-1.82 4.04-4.979 6.15-4.231 10.93-1.96 5.29-7.487 11.85-12.743 14.16-1.778 0.78-2.235 0.65-4.052 0.27-1.487 1.68-3.042 2.89-5.376 3.05-1.805 0.12-3.668-0.52-4.915-1.86-0.17-0.18-0.33-0.37-0.495-0.56-1.03 0.58-1.957 0.89-3.146 0.69-3.275-0.57-5.717-3.08-7.484-5.72l-1.185-1.32c-3.795-1.69-6.286-8.11-8.005-11.58-5.52-4.79-7.713-13.03-11.424-19.19-8.616-7.75-45.1-76.644-49.927-90.164-4.836-13.545-7.255-27.816-9.919-41.904-0.477-8.55-0.926-17.206-0.784-25.77 0.154-9.252 0.987-18.567 0.638-27.815-0.127-3.382-0.113-6.766-1.834-9.782-9.406-16.479-24.383-30.586-36.058-45.551-9.914-12.71-18.695-29.02-30.339-39.938-11.551-17.856-22.27-37.776-32.205-56.671-2.169-4.917-4.025-9.866-5.807-14.932-1.532-4.264-2.729-8.661-4.014-13.005-7.616-36.793-0.6-62.56 15.712-95.671 1.186-2.468 2.216-5.047 3.311-7.56z" fill="#FEC056"/> <path transform="matrix(2.2109 0 0 2.211 -.00012207 0)" d="m626.42 861.02 1.26 1.012-0.053 1.513c-1.088 1.397-2.092 2.281-3.638 3.161-6.81 3.872-12.009 3.092-19.179 1.133-1-0.974-1.713-1.58-2.013-3.011 2.2-1.265 11.466 1.827 15.655 0.511 2.76-0.867 5.497-2.829 7.968-4.319z" fill="#DF993D"/> <path transform="matrix(2.2109 0 0 2.211 -.00012207 0)" d="m460.77 587.54 2.673 1.206c5.761 6.119 12.712 9.602 21.2 9.872 2.453 0.078 4.925-4e-3 7.377-0.073 7.011 2.214 16.502 1.527 23.857 1.654 29.787 0.516 59.169 0.378 87.026-11.452l7.653 1.779 0.035 100.87 0.027 12.42 0.398 14.658q-0.439 13.088-0.276 26.183c-4.393-4.837-6.974-17.638-9.626-24.162-12.887-31.713-30.1-76.48-52.579-101.88-24.077-1.931-51.155-3.947-73.396-14.145-2.033-1.732-4.731-2.725-7.137-3.855-3.213-2.313-6.963-3.851-10.543-5.514 1.186-2.468 2.216-5.047 3.311-7.56z" fill="#DF993D"/> <path transform="matrix(2.2109 0 0 2.211 -.00012207 0)" d="m610.55 590.52c18.074-0.532 36.101 0.098 54.175-0.05 3.685-0.062 7.407-0.23 11.083 0.054l0.017 0.505c-2.072 11.647-0.582 24.66-0.46 36.466l0.531 63.815-0.02 12.782-0.038 15.01c-1.843 27.371 0.419 55.21 0.076 82.644-3.172-4.627-6.723-14.109-10.407-20.088-5.581-2.997-11.088-5.699-17.583-3.876-5.773 1.62-9.685 6.249-12.345 11.375-2.127 4.099-3.293 8.396-4.446 12.838-2.698-6.696-4.684-13.716-7.265-20.471-4.642-12.152-10.186-24.166-13.134-36.877q-0.163-13.095 0.276-26.183l-0.398-14.658-0.027-12.42-0.035-100.87z" fill="#E1E4FD"/> <path transform="matrix(2.2109 0 0 2.211 -.00012207 0)" d="m610.59 691.39 54.886 0.075c8e-3 4.088 0.124 8.205-1e-3 12.289l-54.858 0.056-0.027-12.42z" fill="#8F92E6"/> <path transform="matrix(2.2109 0 0 2.211 -.00012207 0)" d="m610.61 703.81 54.858-0.056-0.039 14.849-54.421-0.135-0.398-14.658z" fill="#E1E4FD"/> <path transform="matrix(2.2109 0 0 2.211 -.00012207 0)" d="m664.73 590.47c3.685-0.062 7.407-0.23 11.083 0.054l0.017 0.505c-2.072 11.647-0.582 24.66-0.46 36.466l0.531 63.815-0.02 12.782-0.038 15.01c-1.843 27.371 0.419 55.21 0.076 82.644-3.172-4.627-6.723-14.109-10.407-20.088-0.241-7.325 0.417-14.775 0.475-22.126q0.106-20.472-0.551-40.933l0.039-14.849c0.125-4.084 9e-3 -8.201 1e-3 -12.289q0.4-50.501-0.746-100.99z" fill="#4D4C9C"/> <path transform="matrix(2.2109 0 0 2.211 -.00012207 0)" d="m611.01 718.47 54.421 0.135q0.657 20.461 0.551 40.933c-0.058 7.351-0.716 14.801-0.475 22.126-5.581-2.997-11.088-5.699-17.583-3.876-5.773 1.62-9.685 6.249-12.345 11.375-2.127 4.099-3.293 8.396-4.446 12.838-2.698-6.696-4.684-13.716-7.265-20.471-4.642-12.152-10.186-24.166-13.134-36.877q-0.163-13.095 0.276-26.183z" fill="#A3A7F2"/> <path transform="matrix(2.2109 0 0 2.211 -.00012207 0)" d="m441.74 690.77c-7.616-36.793-0.6-62.56 15.712-95.671 3.58 1.663 7.33 3.201 10.543 5.514 2.406 1.13 5.104 2.123 7.137 3.855-2.656 11.486-5.043 22.821-5.495 34.636-1.633 42.706 18.985 84.784 41.046 120.06q13.329 21.623 27.882 42.442c10.547 14.849 24.463 29.423 31.077 46.577 7.392 19.172 4.136 43.072 8.04 63.653 10.366 54.652 40.088 118.93 68.797 166.47 2.693 4.46 4.464 10.45 7.54 14.48-1.487 1.68-3.042 2.89-5.376 3.05-1.805 0.12-3.668-0.52-4.915-1.86-0.17-0.18-0.33-0.37-0.495-0.56-1.03 0.58-1.957 0.89-3.146 0.69-3.275-0.57-5.717-3.08-7.484-5.72l-1.185-1.32c-3.795-1.69-6.286-8.11-8.005-11.58-5.52-4.79-7.713-13.03-11.424-19.19-8.616-7.75-45.1-76.644-49.927-90.164-4.836-13.545-7.255-27.816-9.919-41.904-0.477-8.55-0.926-17.206-0.784-25.77 0.154-9.252 0.987-18.567 0.638-27.815-0.127-3.382-0.113-6.766-1.834-9.782-9.406-16.479-24.383-30.586-36.058-45.551-9.914-12.71-18.695-29.02-30.339-39.938-11.551-17.856-22.27-37.776-32.205-56.671-2.169-4.917-4.025-9.866-5.807-14.932-1.532-4.264-2.729-8.661-4.014-13.005z" fill="#FEC056"/> <path transform="matrix(2.2109 0 0 2.211 -.00012207 0)" d="m468 600.61c2.406 1.13 5.104 2.123 7.137 3.855-2.656 11.486-5.043 22.821-5.495 34.636-1.633 42.706 18.985 84.784 41.046 120.06q13.329 21.623 27.882 42.442c10.547 14.849 24.463 29.423 31.077 46.577 7.392 19.172 4.136 43.072 8.04 63.653 10.366 54.652 40.088 118.93 68.797 166.47 2.693 4.46 4.464 10.45 7.54 14.48-1.487 1.68-3.042 2.89-5.376 3.05-1.805 0.12-3.668-0.52-4.915-1.86-0.17-0.18-0.33-0.37-0.495-0.56-4.609-4.55-10.186-18.38-13.418-24.54-26.078-49.75-50.227-100.19-61.406-155.72-3.715-18.451-0.285-45.464-6.599-60.352-7.34-17.305-20.67-32.287-31.689-47.332-27.841-38.013-54.993-81.006-65.357-127.45-4.426-19.833-7.784-60.027 3.231-77.417z" fill="#FE9E9C"/> </svg>